<?xml version="1.0" encoding="UTF-8"?>
<!-- Generator: visioncortex VTracer 0.6.12 -->
<svg version="1.1" xmlns="http://www.w3.org/2000/svg" width="1596" height="1004">
<path d="M0 0 C0.99 0 1.98 0 3 0 C5.101 7.809 6.665 15.508 7.684 23.527 C7.824 24.586 7.964 25.645 8.109 26.736 C8.558 30.135 8.998 33.536 9.438 36.938 C9.748 39.3 10.06 41.663 10.373 44.025 C10.982 48.64 11.589 53.255 12.194 57.87 C13.143 65.105 14.123 72.335 15.125 79.562 C15.276 80.66 15.428 81.758 15.584 82.889 C16.428 88.977 17.295 95.062 18.176 101.145 C18.597 104.055 19.017 106.965 19.438 109.875 C19.543 110.603 19.648 111.331 19.756 112.081 C21.57 124.683 23.22 137.302 24.815 149.934 C26.14 160.419 27.527 170.891 29.016 181.355 C31.95 201.987 34.498 222.667 37.058 243.347 C37.22 244.654 37.382 245.96 37.548 247.306 C37.872 249.919 38.195 252.532 38.516 255.144 C39.359 261.955 40.228 268.762 41.136 275.564 C41.324 276.978 41.511 278.391 41.699 279.805 C42.052 282.471 42.413 285.135 42.778 287.799 C45.111 305.364 45.111 305.364 42.199 309.652 C41.37 310.406 40.541 311.161 39.688 311.938 C21.376 330.534 13.793 355.229 13.688 380.812 C13.752 388.709 14.171 396.291 16 404 C16.183 404.941 16.366 405.882 16.555 406.852 C21.154 428.369 35.471 449.744 53 463 C53.968 463.491 54.936 463.982 55.934 464.488 C59.453 466.406 61.536 467.803 64 471 C65.985 477.862 66.695 485.883 66 493 C65.34 493.99 64.68 494.98 64 496 C61.48 496.303 59.204 496.409 56.68 496.388 C55.917 496.393 55.154 496.398 54.368 496.404 C51.796 496.418 49.226 496.411 46.655 496.404 C44.817 496.41 42.979 496.417 41.141 496.425 C36.139 496.443 31.137 496.442 26.135 496.436 C21.965 496.433 17.795 496.439 13.625 496.445 C3.789 496.459 -6.046 496.457 -15.881 496.446 C-26.04 496.435 -36.199 496.449 -46.357 496.475 C-55.068 496.498 -63.779 496.504 -72.49 496.498 C-77.697 496.495 -82.905 496.497 -88.112 496.515 C-93.008 496.53 -97.904 496.526 -102.8 496.507 C-104.6 496.504 -106.4 496.507 -108.2 496.517 C-110.652 496.53 -113.102 496.519 -115.553 496.501 C-116.271 496.511 -116.988 496.52 -117.728 496.53 C-120.893 496.483 -122.559 496.423 -124.891 494.184 C-127.182 489.673 -128.447 485.068 -128 480 C-127.67 479.67 -127.34 479.34 -127 479 C-124.03 479 -121.06 479 -118 479 C-118 414.32 -118 349.64 -118 283 C-183 284 -183 284 -184 285 C-189.72 284.48 -195.241 283.057 -200.816 281.719 C-224.897 276.282 -251.677 280.24 -273 292.762 C-277.808 296.023 -282.16 299.756 -286.406 303.715 C-288 305 -288 305 -290 305 C-290.122 305.284 -290.122 305.284 -290.742 306.723 C-292.218 309.395 -294.002 311.244 -296.125 313.438 C-305.06 323.247 -310.772 334.51 -315 347 C-315.415 348.167 -315.83 349.333 -316.258 350.535 C-321.982 369.888 -322.392 398.498 -314.059 417.102 C-314 419 -314 419 -315.988 421.48 C-319.236 424.198 -322.491 426.277 -326.188 428.312 C-326.502 428.492 -326.502 428.492 -328.092 429.4 C-332.722 432 -332.722 432 -335 432 C-334.622 428.299 -334.195 424.757 -333.266 421.148 C-328.25 400.943 -328.085 375.917 -337.812 357.062 C-338.849 355.359 -339.911 353.67 -341 352 C-341.257 351.575 -341.257 351.575 -342.555 349.426 C-351.497 335.456 -366.298 327.245 -381.657 322.04 C-385.085 320.857 -387.728 319.914 -390 317 C-387.451 315.725 -385.67 315.88 -382.816 315.886 C-381.735 315.887 -380.654 315.887 -379.54 315.887 C-378.955 315.889 -378.955 315.889 -375.992 315.902 C-374.796 315.904 -373.601 315.905 -372.369 315.907 C-368.537 315.912 -364.706 315.925 -360.875 315.938 C-358.283 315.943 -355.69 315.947 -353.098 315.951 C-346.732 315.962 -340.366 315.979 -334 316 C-336.34 289.489 -338.887 260.732 -360.32 241.969 C-365.316 237.874 -370.445 234.292 -376 231 C-374.648 227.836 -373.332 226.211 -370.508 224.266 C-369.809 223.778 -369.11 223.291 -368.39 222.789 C-367.643 222.281 -366.895 221.773 -366.125 221.25 C-365.74 220.984 -365.74 220.984 -363.793 219.637 C-357.578 215.351 -351.303 211.156 -345 207 C-343.877 206.25 -342.755 205.498 -341.633 204.746 C-307.855 182.101 -273.057 161.357 -237.383 141.852 C-234.325 140.178 -231.271 138.497 -228.219 136.812 C-216.044 130.11 -203.742 123.674 -191.391 117.305 C-186.095 114.573 -180.825 111.796 -175.562 109 C-167.773 104.871 -159.893 100.928 -152 97 C-141.72 91.882 -131.487 86.697 -121.368 81.267 C-119.71 80.38 -118.049 79.498 -116.386 78.62 C-96.9 68.328 -78.816 56.541 -61.063 43.509 C-57.893 41.19 -54.698 38.906 -51.5 36.625 C-50.479 35.895 -49.458 35.166 -48.406 34.414 C-42.345 30.106 -36.237 25.864 -30.141 21.605 C-22.346 16.159 -14.554 10.709 -6.812 5.188 C-6.231 4.773 -5.649 4.359 -5.05 3.932 C-1.124 1.124 -1.124 1.124 0 0 Z M-69.375 246.25 C-77.238 255.872 -80.857 265.677 -83.273 277.641 C-84 281 -84 281 -85 282 C-87.805 282.165 -87.805 282.165 -102 283 C-102 303.46 -102 323.92 -102 345 C-95.73 345.33 -89.46 345.66 -83 346 C-83.001 346.818 -83.001 346.818 -83.007 350.96 C-83.027 366.352 -83.042 381.745 -83.052 397.137 C-83.057 405.051 -83.064 412.966 -83.075 420.88 C-83.085 427.776 -83.092 434.672 -83.094 441.569 C-83.095 445.222 -83.098 448.875 -83.106 452.528 C-83.114 456.601 -83.114 460.674 -83.114 464.748 C-83.117 465.965 -83.121 467.183 -83.124 468.438 C-83.123 469.543 -83.122 470.648 -83.12 471.786 C-83.121 472.268 -83.121 472.268 -83.123 474.708 C-83 477 -83 477 -82 479 C-60.88 479 -39.76 479 -18 479 C-17.67 435.11 -17.34 391.22 -17 346 C-8.09 345.67 0.82 345.34 10 345 C10.023 329.632 10.041 314.264 10.052 298.896 C10.057 291.761 10.064 284.626 10.075 277.49 C10.086 270.611 10.092 263.732 10.095 256.852 C10.097 254.221 10.1 251.59 10.106 248.959 C10.113 245.288 10.114 241.617 10.114 237.946 C10.115 237.396 10.115 237.396 10.124 234.613 C10.124 234.116 10.124 234.116 10.12 231.6 C10.121 230.731 10.122 229.861 10.123 228.966 C10 227 10 227 9 226 C4.839 225.778 0.671 225.814 -3.496 225.815 C-5.568 225.813 -7.639 225.795 -9.711 225.775 C-32.164 225.678 -53.235 229.398 -69.375 246.25 Z " fill="#087BB5" transform="translate(629,0)"/>
<path d="M0 0 C0.715 -0.002 1.43 -0.003 2.166 -0.005 C4.579 -0.009 6.992 -0.006 9.405 -0.002 C11.128 -0.004 12.85 -0.006 14.573 -0.008 C19.265 -0.012 23.957 -0.011 28.649 -0.007 C33.548 -0.005 38.447 -0.007 43.346 -0.009 C51.574 -0.011 59.803 -0.008 68.031 -0.003 C77.559 0.002 87.087 0 96.614 -0.005 C104.779 -0.01 112.944 -0.01 121.109 -0.008 C125.992 -0.006 130.875 -0.006 135.758 -0.009 C140.348 -0.012 144.938 -0.01 149.528 -0.004 C151.217 -0.003 152.907 -0.003 154.596 -0.006 C156.893 -0.008 159.189 -0.005 161.486 0 C162.774 0 164.062 0.001 165.39 0.001 C168.243 0.127 168.243 0.127 169.243 1.127 C169.802 10.408 169.154 19.692 168.368 28.939 C168.289 29.881 168.211 30.822 168.13 31.792 C167.535 38.317 166.513 44.7 165.243 51.127 C165.959 51.393 166.675 51.658 167.413 51.932 C174.882 54.737 179.776 57.149 183.4 64.633 C185.08 69.606 184.726 74.747 184.633 79.939 C184.628 81.149 184.622 82.358 184.616 83.605 C184.594 87.446 184.544 91.286 184.493 95.127 C184.473 97.74 184.454 100.354 184.438 102.967 C184.394 109.354 184.325 115.74 184.243 122.127 C178.633 122.127 173.023 122.127 167.243 122.127 C167.223 120.745 167.203 119.363 167.183 117.939 C167.106 112.788 167.018 107.637 166.925 102.486 C166.887 100.261 166.852 98.036 166.821 95.811 C166.775 92.604 166.717 89.397 166.657 86.189 C166.651 85.696 166.651 85.696 166.622 83.199 C166.326 69.21 166.326 69.21 163.243 66.127 C163.073 66.869 162.902 67.612 162.727 68.376 C155.094 101.431 145.83 134.818 130.243 165.127 C130.026 165.55 130.026 165.55 128.927 167.693 C123.484 178.271 117.907 188.777 112.319 199.278 C110.12 203.425 108.002 207.602 105.93 211.814 C90.034 243.788 71.73 274.886 51.243 304.127 C50.774 304.798 50.306 305.469 49.823 306.161 C44.551 313.696 39.084 321.019 33.243 328.127 C32.558 328.974 31.874 329.821 31.169 330.693 C22.012 341.987 12.559 352.927 2.558 363.481 C-1.532 367.798 -5.5 372.178 -9.339 376.721 C-10.757 378.127 -10.757 378.127 -12.757 378.127 C-13.087 379.117 -13.417 380.107 -13.757 381.127 C-15.195 382.814 -15.195 382.814 -16.757 384.127 C-17.417 384.127 -18.077 384.127 -18.757 384.127 C-18.757 384.787 -18.757 385.447 -18.757 386.127 C-20.085 387.432 -20.085 387.432 -22.007 389.002 C-25.729 392.153 -29.164 395.518 -32.57 399.002 C-37.096 403.597 -41.796 407.77 -46.851 411.787 C-49.571 413.977 -52.215 416.229 -54.851 418.518 C-110.834 467.127 -110.834 467.127 -131.757 467.127 C-130.478 462.638 -128.826 459.534 -125.945 455.877 C-125.14 454.834 -124.336 453.791 -123.507 452.717 C-123.066 452.146 -122.625 451.574 -122.171 450.986 C-119.532 447.517 -116.992 443.976 -114.445 440.439 C-113.896 439.678 -113.347 438.916 -112.781 438.132 C-107.548 430.86 -102.371 423.549 -97.224 416.217 C-96.18 414.729 -95.134 413.243 -94.087 411.758 C-89.977 405.914 -85.963 400.014 -82.007 394.064 C-81.404 393.158 -80.8 392.251 -80.179 391.316 C-67.996 372.973 -56.259 354.493 -45.757 335.127 C-45.31 334.302 -44.863 333.478 -44.402 332.628 C-43.054 330.132 -41.716 327.631 -40.382 325.127 C-39.978 324.375 -39.573 323.622 -39.156 322.847 C-36.286 317.411 -33.974 311.856 -31.757 306.127 C-31.14 304.6 -30.521 303.074 -29.898 301.549 C-6.133 242.974 8.433 182.429 9.243 119.127 C8.458 119.404 7.673 119.681 6.864 119.967 C-10.449 125.936 -28.735 126.253 -45.699 118.842 C-53.035 114.821 -59.557 108.829 -62.695 100.939 C-65.803 89.786 -65.824 79.294 -60.195 69.002 C-53.477 58.587 -43.156 54.076 -31.374 51.342 C-19.674 49.33 -8.197 50.032 3.243 53.127 C2.324 48.843 1.4 44.561 0.472 40.279 C0.158 38.83 -0.154 37.38 -0.465 35.93 C-2.387 26.968 -4.496 18.116 -7.014 9.301 C-7.689 6.416 -7.995 4.07 -7.757 1.127 C-5.861 -0.77 -2.515 0.001 0 0 Z M-42.757 72.127 C-47.176 79.824 -47.416 87.946 -45.601 96.482 C-43.261 103.816 -38.581 107.762 -31.906 111.217 C-23.568 114.749 -11.445 114.627 -3.007 111.377 C3.192 108.362 7.722 104.744 10.243 98.127 C10.459 95.087 10.047 92.251 9.555 89.252 C9.343 87.734 9.131 86.216 8.919 84.697 C8.802 83.95 8.686 83.202 8.566 82.431 C8.131 79.332 7.904 76.221 7.696 73.098 C6.958 69.89 5.037 68.303 2.446 66.412 C-12.383 57.762 -31.126 58.61 -42.757 72.127 Z " fill="#087BB5" transform="translate(525.7572021484375,536.8730163574219)"/>
<path d="M0 0 C0.99 0 1.98 0 3 0 C3.436 1.183 3.871 2.367 4.32 3.586 C13.12 27.106 25.532 40.732 48.102 51.688 C51 53 51 53 54 54 C54 54.66 54 55.32 54 56 C54.66 56.33 55.32 56.66 56 57 C54.257 58.743 51.843 58.17 49.47 58.205 C48.289 58.225 47.108 58.245 45.891 58.266 C45.249 58.274 45.249 58.274 41.996 58.316 C40.688 58.337 39.38 58.358 38.032 58.379 C34.548 58.435 31.065 58.484 27.581 58.532 C24.029 58.582 20.476 58.638 16.924 58.693 C9.949 58.801 2.975 58.902 -4 59 C-4.033 63.164 -4.053 67.328 -4.07 71.492 C-4.08 72.664 -4.089 73.836 -4.099 75.044 C-4.169 97.294 3.157 119.39 18.707 135.695 C19.464 136.456 20.22 137.216 21 138 C21.664 138.699 22.328 139.397 23.012 140.117 C33.757 150.637 47.648 154.955 62 158 C64.672 158.647 67.336 159.322 70 160 C65.525 166.063 60.45 171.228 52.762 172.562 C48.948 172.788 45.158 172.833 41.34 172.805 C39.94 172.816 38.541 172.83 37.141 172.846 C33.486 172.882 29.832 172.883 26.178 172.876 C22.437 172.875 18.696 172.907 14.955 172.938 C7.636 172.994 0.32 172.996 -7 173 C-7 185.87 -7 198.74 -7 212 C-3.04 212.33 0.92 212.66 5 213 C5.66 213.33 6.32 213.66 7 214 C5.586 218.501 3.363 220.758 0 224 C-1.626 225.603 -3.251 227.207 -4.875 228.812 C-5.677 229.603 -6.479 230.393 -7.305 231.207 C-25.234 249.786 -40.796 270.851 -54 293 C-54.226 293.377 -54.226 293.377 -55.367 295.286 C-61.73 305.97 -67.638 316.779 -73 328 C-73.526 329.089 -74.052 330.178 -74.593 331.299 C-84.208 351.224 -92.965 371.389 -101 392 C-101.479 393.228 -101.958 394.456 -102.452 395.722 C-110.802 417.234 -119.004 438.905 -125.809 460.965 C-126.036 461.703 -126.264 462.441 -126.499 463.202 C-127.597 466.775 -128.68 470.351 -129.74 473.935 C-130.129 475.222 -130.518 476.51 -130.906 477.797 C-131.239 478.924 -131.573 480.052 -131.916 481.214 C-132.959 483.894 -133.797 485.21 -136 487 C-137.6 482.668 -138.393 478.711 -138.816 474.117 C-138.878 473.463 -138.939 472.808 -139.002 472.134 C-139.131 470.748 -139.256 469.361 -139.378 467.974 C-139.558 465.928 -139.75 463.884 -139.943 461.84 C-141.626 443.646 -142.167 425.464 -142.203 407.199 C-142.206 406.196 -142.209 405.193 -142.212 404.159 C-142.227 398.836 -142.236 393.514 -142.24 388.191 C-142.245 383.889 -142.258 379.588 -142.281 375.286 C-142.462 340.599 -141.495 306.171 -136.312 271.812 C-136.251 271.39 -136.251 271.39 -135.938 269.25 C-130.33 231.111 -121.067 193.721 -104 159 C-103.729 158.433 -103.729 158.433 -102.359 155.566 C-98.921 148.49 -95.15 141.709 -91.118 134.958 C-87.432 128.78 -83.895 122.524 -80.375 116.25 C-76.411 109.202 -72.393 102.225 -68.094 95.375 C-65.859 91.773 -63.693 88.134 -61.528 84.489 C-57.415 77.569 -53.305 70.73 -48.57 64.211 C-46.8 61.718 -45.182 59.155 -43.562 56.562 C-39.959 50.848 -36.036 45.416 -32 40 C-31.3 39.054 -30.6 38.108 -29.879 37.133 C-21.934 26.455 -13.937 15.848 -4.875 6.086 C-3 4 -3 4 -1.438 1.727 C-0.963 1.157 -0.489 0.587 0 0 Z " fill="#087BB5" transform="translate(142,324)"/>
<path d="M0 0 C0.459 0.002 0.459 0.002 2.785 0.014 C3.272 0.013 3.272 0.013 5.741 0.005 C9.055 -0.002 12.369 0.005 15.683 0.012 C18.076 0.009 20.468 0.006 22.861 0.002 C28.101 -0.005 33.342 -0.006 38.583 -0.001 C46.429 0.006 54.275 0.002 62.121 -0.005 C75.49 -0.015 88.859 -0.017 102.228 -0.013 C115.784 -0.009 129.34 -0.009 142.896 -0.015 C143.751 -0.015 144.606 -0.016 145.487 -0.016 C148.968 -0.018 152.45 -0.019 155.932 -0.021 C191.314 -0.036 226.697 -0.039 262.08 -0.037 C266.973 -0.036 271.866 -0.036 276.759 -0.036 C277.244 -0.036 277.244 -0.036 279.703 -0.035 C301.217 -0.034 322.73 -0.037 344.243 -0.04 C349.152 -0.041 354.061 -0.042 358.97 -0.042 C360.94 -0.043 362.91 -0.043 364.88 -0.043 C365.856 -0.043 366.833 -0.044 367.839 -0.044 C369.814 -0.044 371.789 -0.044 373.764 -0.045 C429.827 -0.053 485.89 -0.058 541.953 -0.054 C542.992 -0.054 544.03 -0.054 545.101 -0.053 C556.684 -0.053 568.267 -0.052 579.851 -0.051 C580.897 -0.051 581.942 -0.051 583.02 -0.05 C591.711 -0.05 591.711 -0.05 595.709 -0.049 C662.617 -0.044 729.526 -0.051 796.434 -0.07 C813.294 -0.075 830.153 -0.08 847.013 -0.084 C848.051 -0.084 849.089 -0.085 850.158 -0.085 C882.134 -0.093 914.11 -0.098 946.086 -0.099 C947.09 -0.099 948.093 -0.099 949.127 -0.099 C971.152 -0.099 993.176 -0.099 1015.201 -0.098 C1023.081 -0.097 1030.961 -0.097 1038.841 -0.097 C1040.802 -0.097 1042.762 -0.096 1044.723 -0.096 C1076.002 -0.095 1107.282 -0.102 1138.561 -0.113 C1170.927 -0.125 1203.293 -0.126 1235.659 -0.114 C1239.13 -0.112 1242.601 -0.111 1246.072 -0.11 C1246.924 -0.11 1247.776 -0.109 1248.654 -0.109 C1262.177 -0.105 1275.699 -0.11 1289.222 -0.12 C1302.499 -0.13 1315.777 -0.129 1329.054 -0.116 C1336.851 -0.109 1344.647 -0.11 1352.444 -0.124 C1358.214 -0.132 1363.983 -0.126 1369.753 -0.113 C1372.086 -0.11 1374.42 -0.113 1376.753 -0.12 C1379.899 -0.13 1383.044 -0.122 1386.19 -0.109 C1387.106 -0.116 1388.023 -0.123 1388.967 -0.131 C1389.799 -0.124 1390.631 -0.116 1391.489 -0.109 C1391.847 -0.109 1391.847 -0.109 1393.663 -0.109 C1396.169 0.389 1397.047 1.221 1398.55 3.266 C1398.794 6.202 1398.878 8.902 1398.8 11.828 C1398.797 12.219 1398.797 12.219 1398.784 14.194 C1398.705 19.956 1398.705 19.956 1397.55 22.266 C1354.564 22.271 1311.577 22.277 1268.591 22.282 C1268.171 22.282 1268.171 22.282 1266.042 22.282 C1175.944 22.293 1085.846 22.302 995.747 22.308 C993.747 22.308 991.746 22.309 989.746 22.309 C947.757 22.312 905.768 22.314 863.779 22.317 C842.688 22.318 821.596 22.319 800.505 22.321 C797.323 22.321 794.142 22.321 790.96 22.321 C741.948 22.324 692.936 22.328 643.923 22.335 C643.396 22.335 643.396 22.335 640.728 22.335 C623.727 22.337 606.726 22.34 589.726 22.342 C540.778 22.348 491.831 22.355 442.884 22.357 C441.878 22.357 440.872 22.357 439.836 22.357 C417.759 22.358 395.683 22.359 373.606 22.36 C364.724 22.36 355.842 22.361 346.961 22.361 C346.474 22.361 346.474 22.361 344.015 22.361 C312.655 22.362 281.296 22.366 249.936 22.372 C218.366 22.378 186.795 22.381 155.224 22.38 C150.869 22.379 146.513 22.379 142.157 22.379 C141.303 22.379 140.449 22.379 139.569 22.379 C126.01 22.379 112.451 22.382 98.891 22.386 C85.581 22.39 72.271 22.391 58.96 22.388 C51.142 22.386 43.324 22.387 35.506 22.392 C29.724 22.396 23.942 22.394 18.16 22.39 C15.819 22.389 13.478 22.39 11.136 22.393 C7.985 22.397 4.834 22.394 1.683 22.39 C0.759 22.393 -0.164 22.395 -1.116 22.398 C-7.336 22.38 -7.336 22.38 -8.45 21.266 C-8.7 18.128 -8.635 14.975 -8.638 11.828 C-8.65 10.944 -8.662 10.059 -8.675 9.147 C-8.677 8.301 -8.679 7.454 -8.681 6.582 C-8.685 5.803 -8.689 5.024 -8.693 4.221 C-8.072 -0.78 -4.087 0.025 0 0 Z " fill="#087BB5" transform="translate(157.45006171963178,504.7340196433943)"/>
<path d="M0 0 C16.89 -0.377 34.217 2.747 47.285 14.121 C49.79 16.694 52.026 19.321 54.285 22.121 C54.615 16.511 54.945 10.901 55.285 5.121 C68.155 5.121 81.025 5.121 94.285 5.121 C94.308 27.008 94.326 48.896 94.337 70.783 C94.342 80.945 94.349 91.106 94.361 101.268 C94.371 110.122 94.377 118.976 94.379 127.829 C94.381 132.52 94.384 137.211 94.391 141.902 C94.398 146.312 94.4 150.723 94.398 155.133 C94.399 156.756 94.401 158.379 94.404 160.003 C94.409 162.21 94.408 164.416 94.405 166.623 C94.406 167.242 94.406 167.242 94.408 170.374 C94.285 173.121 94.285 173.121 93.285 174.121 C90.546 174.21 87.833 174.236 85.094 174.219 C84.274 174.217 83.454 174.216 82.609 174.214 C79.98 174.209 77.352 174.196 74.723 174.184 C72.945 174.179 71.167 174.174 69.389 174.17 C65.021 174.16 60.653 174.14 56.285 174.121 C55.955 168.181 55.625 162.241 55.285 156.121 C54.006 157.647 52.728 159.174 51.41 160.746 C42.375 170.725 30.613 175.716 17.285 177.121 C-10.093 178.394 -33.737 173.942 -54.715 155.121 C-71.833 138.471 -81.624 116.717 -82.007 92.856 C-82.159 65.967 -75.287 43.726 -56.402 23.719 C-40.757 8.596 -21.533 0.96 0 0 Z M-31.715 57.121 C-40.346 68.258 -42.918 81.292 -41.715 95.121 C-39.747 108.57 -33.321 119.984 -22.527 128.246 C-11.533 136.006 -1.016 137.921 12.285 137.121 C24.256 135.015 34.836 128.108 42.266 118.582 C50.872 105.846 53.469 92.507 50.59 77.496 C46.971 64.601 39.583 52.733 27.703 45.973 C6.47 34.766 -15.597 39.672 -31.715 57.121 Z " fill="#FFFFFF" transform="translate(1355.71484375,291.87890625)"/>
<path d="M0 0 C3.469 3.019 6.313 6.337 9.199 9.914 C9.529 4.304 9.859 -1.306 10.199 -7.086 C23.069 -7.086 35.939 -7.086 49.199 -7.086 C49.222 14.801 49.24 36.688 49.251 58.576 C49.256 68.738 49.263 78.899 49.275 89.061 C49.285 97.915 49.291 106.769 49.293 115.622 C49.295 120.313 49.298 125.004 49.305 129.695 C49.312 134.105 49.314 138.515 49.312 142.926 C49.313 144.549 49.315 146.172 49.318 147.796 C49.323 150.003 49.322 152.209 49.319 154.416 C49.32 155.035 49.32 155.035 49.322 158.167 C49.199 160.914 49.199 160.914 48.199 161.914 C45.46 162.003 42.747 162.029 40.008 162.012 C39.188 162.01 38.368 162.009 37.523 162.007 C34.895 162.002 32.266 161.989 29.637 161.977 C27.859 161.972 26.081 161.967 24.303 161.963 C19.935 161.953 15.567 161.933 11.199 161.914 C10.869 155.974 10.539 150.034 10.199 143.914 C8.92 145.44 7.642 146.967 6.324 148.539 C-2.711 158.518 -14.473 163.509 -27.801 164.914 C-56.001 166.225 -79.346 161.293 -100.801 141.914 C-117.48 125.72 -126.721 103.778 -127.093 80.649 C-127.244 53.931 -120.352 31.891 -101.883 11.965 C-76.495 -13.042 -30.187 -22.653 0 0 Z M-76.801 44.914 C-85.862 57.211 -88.514 71.054 -86.34 86.105 C-83.365 99.526 -76.337 110.445 -64.801 117.914 C-53.691 124.326 -42.798 126.694 -29.992 124.414 C-16.772 120.784 -6.247 112.603 0.691 100.809 C7.059 88.584 8.653 74.713 4.574 61.414 C-1.253 46.725 -10.431 36.936 -24.602 30.191 C-43.622 22.597 -63.566 30.734 -76.801 44.914 Z " fill="#FFFFFF" transform="translate(448.80078125,304.0859375)"/>
<path d="M0 0 C4.472 1.467 5.978 4.864 8 8.812 C8.349 9.487 8.698 10.161 9.057 10.856 C14.9 22.478 17.021 34.163 18 47 C18.097 48.16 18.193 49.32 18.293 50.516 C18.668 58.899 16.473 65.421 13 73 C15.31 73.33 17.62 73.66 20 74 C20.33 97.43 20.66 120.86 21 145 C23.97 142.03 26.94 139.06 30 136 C43.413 125.697 59.268 123.347 75.82 125.496 C93.283 128.669 106.198 135.774 117 150 C129.211 169.809 129.299 191.539 129.195 213.992 C129.192 216.394 129.189 218.795 129.187 221.196 C129.179 227.473 129.16 233.749 129.137 240.026 C129.117 246.448 129.108 252.871 129.098 259.293 C129.076 271.862 129.043 284.431 129 297 C124.985 298.115 121.129 298.144 116.988 298.133 C116.604 298.133 116.604 298.133 114.658 298.136 C113.039 298.136 111.419 298.135 109.8 298.13 C107.311 298.125 104.823 298.13 102.334 298.137 C100.76 298.136 99.187 298.135 97.613 298.133 C97.239 298.134 97.239 298.134 95.347 298.139 C90.115 298.115 90.115 298.115 89 297 C88.891 294.102 88.846 291.227 88.842 288.328 C88.837 287.417 88.832 286.506 88.827 285.568 C88.816 283.58 88.808 281.592 88.801 279.605 C88.789 276.445 88.77 273.286 88.748 270.127 C88.686 261.141 88.632 252.154 88.599 243.168 C88.578 237.675 88.542 232.182 88.498 226.689 C88.484 224.606 88.475 222.523 88.472 220.44 C88.407 182.407 88.407 182.407 77 171 C68.063 164.867 57.694 163.673 47.102 165.5 C38.943 167.467 33.549 170.289 28.812 177.312 C22.315 188.9 20.878 203.098 20.811 216.154 C20.802 217.031 20.794 217.909 20.785 218.813 C20.768 220.703 20.753 222.593 20.74 224.483 C20.718 227.471 20.691 230.458 20.663 233.446 C20.593 240.856 20.534 248.267 20.474 255.677 C20.423 261.958 20.368 268.239 20.308 274.52 C20.281 277.47 20.261 280.42 20.24 283.37 C20.224 285.164 20.207 286.958 20.189 288.752 C20.185 289.577 20.181 290.403 20.177 291.253 C20.114 296.886 20.114 296.886 19 298 C16.345 298.101 13.717 298.14 11.062 298.133 C10.665 298.133 10.665 298.133 8.653 298.136 C6.968 298.136 5.283 298.135 3.599 298.13 C1.011 298.125 -1.576 298.13 -4.164 298.137 C-5.797 298.136 -7.43 298.135 -9.062 298.133 C-9.842 298.135 -10.621 298.137 -11.424 298.139 C-16.885 298.115 -16.885 298.115 -18 297 C-18.098 294.13 -18.13 291.284 -18.12 288.414 C-18.121 287.502 -18.122 286.591 -18.123 285.652 C-18.125 282.573 -18.119 279.494 -18.114 276.416 C-18.113 274.219 -18.113 272.021 -18.114 269.824 C-18.114 263.839 -18.108 257.854 -18.101 251.868 C-18.095 245.621 -18.095 239.374 -18.093 233.126 C-18.091 222.634 -18.084 212.141 -18.075 201.649 C-18.066 190.839 -18.059 180.03 -18.055 169.221 C-18.055 168.555 -18.054 167.889 -18.054 167.203 C-18.053 163.863 -18.052 160.523 -18.05 157.183 C-18.04 129.455 -18.022 101.728 -18 74 C-16.845 73.835 -16.845 73.835 -11 73 C-11.133 72.667 -11.133 72.667 -11.805 70.98 C-18.836 52.632 -17.401 36.941 -10 19 C-7.085 12.471 -3.97 5.955 0 0 Z " fill="#FFFFFF" transform="translate(892,168)"/>
<path d="M0 0 C2.162 1.776 4.269 3.594 6.375 5.438 C7.058 6.02 7.741 6.603 8.445 7.203 C24.328 21.83 32.269 42.379 34.375 63.438 C34.375 70.368 34.375 77.298 34.375 84.438 C-9.515 84.438 -53.405 84.438 -98.625 84.438 C-95.028 98.825 -90.691 108.093 -78.25 116.012 C-66.518 122.384 -52.577 123.422 -39.688 120.25 C-30.212 117.149 -23.168 113.038 -16.625 105.438 C-16.291 104.745 -15.956 104.053 -15.612 103.339 C-12.811 100.659 -10.655 100.983 -6.882 100.984 C-5.978 101.005 -5.075 101.026 -4.145 101.047 C-3.681 101.05 -3.681 101.05 -1.332 101.064 C1.633 101.086 4.597 101.137 7.562 101.188 C9.572 101.208 11.582 101.226 13.592 101.242 C18.52 101.286 23.447 101.355 28.375 101.438 C27.915 102.864 27.451 104.289 26.985 105.713 C26.727 106.507 26.469 107.3 26.203 108.118 C22.729 117.845 16.156 126.771 9.375 134.438 C8.846 135.049 8.318 135.66 7.773 136.289 C-5.786 150.918 -25.981 159.377 -45.688 160.562 C-69.867 161.475 -91.655 155.587 -109.875 139 C-111.82 137.171 -113.723 135.312 -115.625 133.438 C-116.295 132.78 -116.966 132.123 -117.656 131.445 C-133.952 114.187 -140.141 89.708 -139.836 66.648 C-139.109 42.111 -127.925 21.319 -110.625 4.438 C-79.933 -23.521 -32.794 -25.892 0 0 Z M-87.582 33.23 C-92.961 39.041 -95.457 44.851 -97.625 52.438 C-68.255 52.438 -38.885 52.438 -8.625 52.438 C-10.735 41.889 -16.376 33.121 -25.012 26.648 C-45.7 13.462 -69.948 16.907 -87.582 33.23 Z " fill="#FFFFFF" transform="translate(794.625,309.5625)"/>
<path d="M0 0 C1.061 0.362 2.122 0.724 3.215 1.098 C24.769 9.281 42.681 27.588 52.512 48.164 C59.346 64.707 59 79.782 59 98 C15.11 98 -28.78 98 -74 98 C-68.107 116.857 -68.107 116.857 -63 122 C-62.392 122.623 -61.783 123.245 -61.156 123.887 C-50.839 133.651 -38.244 135.618 -24.555 135.312 C-14.713 134.82 -5.448 131.526 2 125 C2.536 124.177 3.073 123.353 3.626 122.505 C6.173 118.701 8.559 115.59 13.195 114.47 C19.639 113.734 26.099 114.09 32.562 114.375 C34.545 114.425 36.527 114.471 38.51 114.512 C43.343 114.621 48.17 114.794 53 115 C49.936 131.892 36.312 148.7 22.676 158.445 C2.415 172.253 -20.967 176.838 -45.062 172.938 C-58.402 170.285 -70.59 164.773 -81 156 C-81.861 155.288 -82.722 154.577 -83.609 153.844 C-101.741 138.24 -113.156 115.911 -115 92 C-116.549 66.52 -108.954 44.104 -92.386 24.774 C-69.347 -1.185 -33.088 -11.481 0 0 Z M-61.184 44.938 C-64.687 48.916 -67.393 53.399 -70 58 C-70.394 58.687 -70.789 59.374 -71.195 60.082 C-72 62 -72 62 -72 66 C-42.96 66 -13.92 66 16 66 C14.308 55.849 9.269 47.251 1 41 C-18.741 28.683 -43.552 28.447 -61.184 44.938 Z " fill="#FFFFFF" transform="translate(1180,296)"/>
<path d="M0 0 C0.378 0.276 0.378 0.276 2.293 1.672 C16.352 12.997 22.33 29.831 24.738 47.195 C25 50 25 50 25 55 C11.8 55 -1.4 55 -15 55 C-15.33 53.02 -15.33 53.02 -17 43 C-19.869 36.634 -22.846 33.656 -29.254 30.848 C-36.46 28.623 -43.347 29.262 -50.059 32.672 C-54.402 35.643 -56.379 39.463 -58.312 44.25 C-59.897 52.895 -59.822 60.409 -55 68 C-47.753 75.673 -35.82 78.539 -26.062 81.5 C-6.188 87.551 11.631 94.809 23 113 C28.385 123.525 30.386 133.878 30.312 145.625 C30.307 146.583 30.301 147.541 30.295 148.528 C29.99 166.648 25.483 183.691 14 198 C13.491 198.683 12.982 199.366 12.457 200.07 C2.579 212.509 -12.513 219.379 -27.977 221.715 C-45.88 223.403 -64.044 221.272 -78.715 209.895 C-81.247 207.682 -83.635 205.389 -86 203 C-86.313 202.704 -86.313 202.704 -87.895 201.207 C-101.554 187.24 -105.507 166.76 -106 148 C-79.249 146.806 -79.249 146.806 -66 147 C-65.914 147.967 -65.827 148.934 -65.738 149.93 C-64.63 160.197 -62.947 168.56 -55.188 176 C-49.437 180.594 -43.307 181.619 -36 181 C-28.724 179.717 -22.796 177.842 -18 172 C-13.002 164.068 -12.08 156.29 -13 147 C-15.544 138.394 -21.007 132.8 -28.703 128.484 C-35.27 125.285 -42.033 122.911 -48.938 120.562 C-68.603 113.839 -83.884 104.748 -94.312 86.125 C-102.14 68.801 -100.643 47.019 -94.781 29.32 C-88.951 14.518 -79.045 2.148 -64.562 -4.875 C-62.723 -5.62 -60.868 -6.329 -59 -7 C-58.147 -7.318 -57.293 -7.637 -56.414 -7.965 C-38.259 -13.609 -15.39 -11.377 0 0 Z " fill="#FFFFFF" transform="translate(256,248)"/>
<path d="M0 0 C0.025 4.966 0.043 9.932 0.055 14.899 C0.06 16.589 0.067 18.28 0.075 19.971 C0.088 22.396 0.093 24.821 0.098 27.246 C0.103 28.007 0.108 28.767 0.113 29.55 C0.113 31.367 0.062 33.184 0 35 C-1.786 36.786 -4.582 36.215 -7 36.312 C-12.955 36.744 -18.03 37.534 -23 41 C-26.928 46.156 -26.306 50.058 -27 57 C-18.09 57 -9.18 57 0 57 C0 68.55 0 80.1 0 92 C-9.24 92 -18.48 92 -28 92 C-27.995 96.024 -27.99 100.047 -27.984 104.193 C-27.968 117.453 -27.956 130.712 -27.948 143.971 C-27.943 152.015 -27.936 160.058 -27.925 168.101 C-27.915 175.109 -27.908 182.117 -27.906 189.125 C-27.905 192.837 -27.902 196.55 -27.894 200.263 C-27.886 204.401 -27.886 208.539 -27.886 212.677 C-27.883 213.918 -27.879 215.158 -27.876 216.435 C-27.877 217.556 -27.878 218.676 -27.88 219.831 C-27.879 220.81 -27.878 221.79 -27.877 222.8 C-28 225 -28 225 -29 226 C-31.655 226.101 -34.283 226.14 -36.938 226.133 C-37.335 226.133 -37.335 226.133 -39.347 226.136 C-41.032 226.136 -42.717 226.135 -44.401 226.13 C-46.989 226.125 -49.576 226.13 -52.164 226.137 C-53.797 226.136 -55.43 226.135 -57.062 226.133 C-57.842 226.135 -58.621 226.137 -59.424 226.139 C-64.885 226.115 -64.885 226.115 -66 225 C-66.096 223.279 -66.122 221.554 -66.12 219.831 C-66.122 218.71 -66.123 217.59 -66.124 216.435 C-66.121 215.195 -66.117 213.955 -66.114 212.677 C-66.114 211.38 -66.114 210.083 -66.114 208.746 C-66.114 205.178 -66.108 201.61 -66.101 198.042 C-66.095 194.317 -66.095 190.592 -66.093 186.867 C-66.09 179.809 -66.082 172.75 -66.072 165.692 C-66.061 157.658 -66.055 149.625 -66.05 141.591 C-66.04 125.061 -66.022 108.53 -66 92 C-72.6 92 -79.2 92 -86 92 C-86 80.45 -86 68.9 -86 57 C-80.06 57 -74.12 57 -68 57 C-67.918 54.298 -67.835 51.596 -67.75 48.812 C-67.073 34.663 -63.286 21.712 -52.812 11.688 C-41.672 2.447 -14.162 -7.081 0 0 Z " fill="#FFFFFF" transform="translate(626,240)"/>
<path d="M0 0 C12.87 0 25.74 0 39 0 C39.667 4.005 40.124 7.148 40.114 11.087 C40.113 11.568 40.113 11.568 40.113 13.998 C40.108 15.017 40.103 16.036 40.098 17.086 C40.096 18.143 40.095 19.2 40.093 20.289 C40.088 23.651 40.075 27.013 40.062 30.375 C40.057 32.66 40.053 34.945 40.049 37.23 C40.039 42.82 40.019 48.41 40 54 C48.25 54.33 56.5 54.66 65 55 C65 66.55 65 78.1 65 90 C60.875 90.165 60.875 90.165 40 91 C39.67 134.89 39.34 178.78 39 224 C26.46 224 13.92 224 1 224 C0 223 0 223 -0.123 220.8 C-0.123 220.31 -0.123 220.31 -0.12 217.831 C-0.122 216.71 -0.123 215.59 -0.124 214.435 C-0.121 213.195 -0.117 211.955 -0.114 210.677 C-0.114 209.38 -0.114 208.083 -0.114 206.746 C-0.114 203.178 -0.108 199.61 -0.101 196.042 C-0.095 192.317 -0.095 188.592 -0.093 184.867 C-0.09 177.809 -0.082 170.75 -0.072 163.692 C-0.061 155.658 -0.055 147.625 -0.05 139.591 C-0.04 123.061 -0.022 106.53 0 90 C-8.25 90 -16.5 90 -25 90 C-25 78.45 -25 66.9 -25 55 C-16.75 55 -8.5 55 0 55 C0 36.85 0 18.7 0 0 Z " fill="#FFFFFF" transform="translate(1516,242)"/>
<path d="M0 0 C6.359 5.877 9.389 12.929 10.918 21.34 C10.918 24.64 10.918 27.94 10.918 31.34 C-14.162 31.34 -39.242 31.34 -65.082 31.34 C-61.636 39.379 -61.636 39.379 -57.082 42.34 C-50.918 44.395 -42.583 44.442 -36.352 42.48 C-34.072 41.334 -31.903 40.161 -30.082 38.34 C-27.266 38.395 -24.482 38.513 -21.672 38.68 C-20.83 38.725 -19.988 38.771 -19.12 38.818 C-16.42 38.967 -13.72 39.122 -11.02 39.277 C-9.193 39.379 -7.367 39.48 -5.541 39.58 C-1.054 39.828 3.432 40.082 7.918 40.34 C7.918 43.34 7.918 43.34 6.371 45.172 C-12.258 61.918 -35.337 62.129 -59.082 61.34 C-73.926 60.45 -87.537 56.339 -97.996 45.324 C-104.882 36.708 -106.187 28.273 -105.082 17.34 C-102.818 8.298 -96.472 1.731 -88.957 -3.41 C-65.143 -17.595 -22.108 -17.629 0 0 Z M-63.645 11.34 C-65.082 14.34 -65.082 14.34 -65.082 18.34 C-53.202 18.34 -41.322 18.34 -29.082 18.34 C-30.321 10.908 -30.321 10.908 -34.082 7.34 C-43.672 1.803 -56.32 2.764 -63.645 11.34 Z " fill="#FFFFFF" transform="translate(1303.08203125,599.66015625)"/>
<path d="M0 0 C5.861 2.393 8.557 7.956 12 13 C12.509 13.738 13.018 14.475 13.542 15.235 C20.251 24.985 26.673 34.856 32.562 45.125 C33.038 45.952 33.514 46.78 34.005 47.632 C47.717 71.962 56.174 102.016 49.5 129.875 C45.963 141.066 40.954 151.899 35 162 C33.643 157.622 34.741 154.129 35.875 149.812 C37.348 143.884 38.72 138.125 39 132 C39.04 131.268 39.08 130.536 39.121 129.781 C39.374 121.08 37.317 113.701 33.125 106.125 C32.733 105.402 32.341 104.678 31.937 103.933 C27.033 95.036 21.53 86.515 16 78 C15.404 77.08 14.809 76.16 14.195 75.212 C10.476 69.466 6.745 63.729 3 58 C-2.154 61.573 -5.505 66.267 -9.188 71.25 C-9.847 72.138 -10.506 73.026 -11.185 73.941 C-32.159 102.499 -32.159 102.499 -32.114 118.698 C-32.113 119.599 -32.113 120.5 -32.113 121.427 C-32.108 122.386 -32.103 123.344 -32.098 124.332 C-32.097 124.828 -32.097 124.828 -32.093 127.337 C-32.088 130.496 -32.075 133.654 -32.062 136.812 C-32.057 138.958 -32.053 141.103 -32.049 143.248 C-32.038 148.499 -32.021 153.749 -32 159 C-32.66 159 -33.32 159 -34 159 C-42.809 142.719 -46.234 127.675 -46.25 109.062 C-46.251 108.367 -46.251 107.672 -46.252 106.956 C-46.21 80.037 -37.028 59.384 -22.296 37.287 C-16.658 28.713 -11.74 19.773 -6.849 10.761 C-6.547 10.206 -6.547 10.206 -5.02 7.398 C-4.752 6.902 -4.752 6.902 -3.398 4.388 C-2 2 -2 2 0 0 Z " fill="#087BB5" transform="translate(892,83)"/>
<path d="M0 0 C5.475 5.205 9.002 11.755 9.676 19.289 C9.918 28.961 8.013 35.857 1.812 43.375 C-10.431 56.184 -28.039 59.505 -45.1 59.91 C-64.757 60.107 -83.379 57.302 -98.086 43.16 C-104.36 36.296 -106.259 28.974 -105.949 19.844 C-104.91 11.198 -101.118 4.43 -94.477 -1.117 C-85.376 -7.979 -74.814 -11.841 -63.562 -13.375 C-62.699 -13.497 -61.835 -13.62 -60.945 -13.746 C-39.993 -16.097 -16.866 -13.607 0 0 Z M-63.375 11.625 C-67.289 16.992 -67.069 22.196 -66.562 28.625 C-64.917 33.389 -62.737 35.842 -58.562 38.625 C-52.686 41.361 -46.463 41.765 -40.211 39.938 C-35.491 37.816 -33.031 35.267 -30.562 30.625 C-28.768 25.241 -29.066 20.281 -30.688 14.875 C-33.366 10.233 -36.364 7.358 -41.562 5.625 C-50.265 5.021 -57.285 4.729 -63.375 11.625 Z " fill="#FFFFFF" transform="translate(1069.5625,601.375)"/>
<path d="M0 0 C3.417 3.701 5.709 6.954 7.414 11.719 C-10.257 14.175 -10.257 14.175 -18.586 14.719 C-19.558 14.796 -20.53 14.873 -21.531 14.953 C-28.861 15.305 -28.861 15.305 -32.523 12.344 C-33.204 11.477 -33.885 10.611 -34.586 9.719 C-38.2 7.212 -42.088 7.334 -46.336 7.344 C-46.693 7.345 -46.693 7.345 -48.503 7.349 C-54.327 7.484 -57.858 8.381 -62.586 11.719 C-66.271 15.641 -66.757 19.339 -66.836 24.594 C-66.849 25.108 -66.849 25.108 -66.914 27.711 C-66.538 31.16 -65.638 32.947 -63.586 35.719 C-56.172 41.279 -49.64 41.431 -40.586 40.719 C-35.806 39.424 -33.286 37.758 -30.5 33.623 C-28.113 30.748 -27.753 30.736 -23.714 30.313 C-22.214 30.439 -20.716 30.6 -19.223 30.789 C-18.431 30.864 -17.639 30.939 -16.823 31.017 C-14.302 31.262 -11.789 31.552 -9.273 31.844 C-7.562 32.019 -5.851 32.19 -4.139 32.359 C0.05 32.779 4.232 33.238 8.414 33.719 C6.991 41.924 1.923 46.919 -4.586 51.719 C-24.492 63.966 -52.715 63.271 -74.895 58.629 C-87.518 55.516 -97.678 49.167 -104.688 37.957 C-108.045 30.724 -107.737 21.276 -105.824 13.703 C-102.006 3.621 -95.135 -1.959 -85.652 -6.77 C-79.067 -9.672 -72.723 -11.438 -65.586 -12.281 C-65.081 -12.342 -65.081 -12.342 -62.523 -12.652 C-41.989 -14.614 -16.28 -14.362 0 0 Z " fill="#FFFFFF" transform="translate(942.5859375,600.28125)"/>
<path d="M0 0 C13.2 0 26.4 0 40 0 C47.875 15.75 47.875 15.75 50.309 21.492 C50.565 22.094 50.821 22.696 51.086 23.315 C51.874 25.167 52.656 27.021 53.438 28.875 C53.983 30.16 54.53 31.445 55.076 32.73 C56.388 35.819 57.696 38.908 59 42 C64.441 31.52 69.263 20.794 73.999 9.981 C74.502 8.836 75.005 7.691 75.523 6.512 C75.75 5.993 75.75 5.993 76.896 3.37 C78 1 78 1 79 0 C81.884 -0.089 84.745 -0.115 87.629 -0.098 C88.061 -0.097 88.061 -0.097 90.248 -0.093 C93.019 -0.088 95.791 -0.075 98.562 -0.062 C100.437 -0.057 102.311 -0.053 104.186 -0.049 C108.79 -0.038 113.395 -0.021 118 0 C116.589 3.824 114.812 7.156 112.684 10.629 C112.01 11.733 111.336 12.838 110.642 13.975 C109.907 15.171 109.172 16.367 108.438 17.562 C107.68 18.802 106.922 20.041 106.165 21.281 C104.985 23.212 103.804 25.144 102.622 27.074 C99.835 31.627 97.065 36.189 94.305 40.758 C93.544 42.016 92.783 43.275 92.022 44.533 C90.93 46.339 89.838 48.144 88.749 49.951 C87.103 52.679 85.446 55.394 83.747 58.089 C82 61 82 61 80.792 63.747 C79.441 66.539 78.469 68.102 76 70 C70.965 71.256 66.205 71.464 61.033 71.393 C58.63 71.375 56.252 71.474 53.852 71.582 C42.862 71.778 42.862 71.778 38.441 67.556 C36.699 64.746 35.236 61.94 33.896 58.919 C32.349 55.607 30.391 52.547 28.484 49.434 C27.703 48.121 26.925 46.807 26.148 45.491 C25.756 44.829 25.364 44.166 24.96 43.483 C24.76 43.145 24.76 43.145 23.75 41.438 C22.08 38.617 20.41 35.796 18.738 32.977 C18.331 32.289 17.923 31.602 17.504 30.893 C15.076 26.801 12.631 22.719 10.168 18.648 C9.613 17.731 9.059 16.814 8.487 15.869 C7.487 14.219 6.484 12.571 5.478 10.926 C5.04 10.204 4.603 9.482 4.152 8.738 C3.967 8.434 3.967 8.434 3.027 6.896 C1.831 4.689 0.932 2.331 0 0 Z " fill="#FFFFFF" transform="translate(1079,589)"/>
<path d="M0 0 C0.165 0.495 0.165 0.495 1 3 C1.969 3.041 2.939 3.082 3.938 3.125 C9.035 3.881 13.338 6.432 17 10 C21.401 16.949 21.535 22.715 21.391 30.812 C21.385 32.022 21.379 33.231 21.373 34.478 C21.351 38.319 21.301 42.159 21.25 46 C21.23 48.613 21.212 51.227 21.195 53.84 C21.151 60.227 21.082 66.613 21 73 C15.39 73 9.78 73 4 73 C3.99 72.309 3.99 72.309 3.94 68.812 C3.864 63.661 3.775 58.51 3.683 53.359 C3.644 51.134 3.61 48.909 3.578 46.684 C3.532 43.477 3.474 40.27 3.414 37.062 C3.403 36.076 3.391 35.089 3.379 34.072 C3.259 28.409 2.792 23.394 1 18 C-4.186 13.505 -9.021 12.697 -15.75 12.773 C-20.012 13.203 -23.97 14.606 -28 16 C-28.99 16.309 -29.98 16.619 -31 16.938 C-33.615 18.327 -34.042 19.201 -35 22 C-36.8 28.166 -37.332 33.781 -37.414 40.188 C-37.433 41.131 -37.453 42.074 -37.473 43.045 C-37.532 46.03 -37.579 49.015 -37.625 52 C-37.663 54.035 -37.702 56.07 -37.742 58.105 C-37.838 63.07 -37.922 68.035 -38 73 C-43.61 73 -49.22 73 -55 73 C-55.015 71.552 -55.029 70.105 -55.044 68.613 C-55.102 63.225 -55.18 57.837 -55.262 52.449 C-55.296 50.121 -55.324 47.792 -55.346 45.463 C-55.38 42.109 -55.432 38.756 -55.488 35.402 C-55.495 34.367 -55.501 33.331 -55.508 32.264 C-55.625 26.433 -56.145 22.131 -59 17 C-64.268 12.841 -70.466 12.375 -77 13 C-83.482 14.272 -88.56 16.018 -93 21 C-95.951 27.271 -96.463 33.45 -96.512 40.285 C-96.53 41.227 -96.548 42.169 -96.566 43.139 C-96.62 46.113 -96.654 49.088 -96.688 52.062 C-96.721 54.093 -96.755 56.124 -96.791 58.154 C-96.876 63.103 -96.943 68.051 -97 73 C-102.61 73 -108.22 73 -114 73 C-114 49.9 -114 26.8 -114 3 C-109.05 3 -104.1 3 -99 3 C-98.67 5.64 -98.34 8.28 -98 11 C-97.383 10.602 -96.765 10.203 -96.129 9.793 C-95.705 9.528 -95.705 9.528 -93.562 8.188 C-92.739 7.665 -91.915 7.143 -91.066 6.605 C-83.667 2.732 -76.94 1.467 -68.625 1.562 C-67.703 1.57 -66.781 1.578 -65.832 1.585 C-57.125 1.796 -49.762 3.008 -43.312 9.25 C-42.931 9.704 -42.931 9.704 -41 12 C-37.048 10.11 -33.423 7.786 -29.73 5.438 C-23.073 1.932 -16.897 1.738 -9.562 1.875 C-8.64 1.884 -7.718 1.893 -6.768 1.902 C-4.511 1.926 -2.256 1.958 0 2 C0 1.34 0 0.68 0 0 Z " fill="#FFFFFF" transform="translate(689,586)"/>
<path d="M0 0 C7.126 7.552 9.275 17.251 9.191 27.41 C8.191 28.41 8.191 28.41 5.262 28.53 C3.949 28.528 2.637 28.526 1.285 28.524 C0.563 28.524 -0.159 28.524 -0.903 28.524 C-3.3 28.523 -5.697 28.516 -8.094 28.508 C-9.751 28.506 -11.409 28.505 -13.067 28.504 C-17.438 28.5 -21.809 28.49 -26.181 28.479 C-30.638 28.469 -35.095 28.464 -39.553 28.459 C-48.305 28.448 -57.057 28.431 -65.809 28.41 C-65.039 30.351 -64.26 32.288 -63.477 34.223 C-63.044 35.302 -62.611 36.381 -62.165 37.492 C-59.329 43.594 -54.157 46.385 -47.984 48.68 C-37.937 50.991 -26.724 50.937 -17.809 45.41 C-17.097 45.076 -16.385 44.742 -15.652 44.398 C-13.272 43.122 -12.847 41.858 -11.809 39.41 C-11.149 38.42 -10.489 37.43 -9.809 36.41 C-7.37 36.524 -4.933 36.651 -2.496 36.785 C-2.151 36.801 -2.151 36.801 -0.404 36.879 C3.261 37.091 5.07 37.329 8.191 39.41 C3.406 48.79 -2.879 54.681 -12.809 58.41 C-29.799 63.705 -49.161 63.232 -65.309 55.535 C-74.397 50.598 -79.139 45.229 -82.93 35.547 C-85.365 26.856 -84.678 16.593 -80.809 8.41 C-74.6 -2.309 -64.592 -7.68 -52.922 -10.875 C-35.03 -14.983 -14.161 -12.448 0 0 Z M-61.059 7.723 C-62.809 10.41 -62.809 10.41 -64.809 17.41 C-46.659 17.41 -28.509 17.41 -9.809 17.41 C-12.747 8.595 -14.044 5.248 -21.871 1.16 C-34.587 -4.984 -51.211 -2.399 -61.059 7.723 Z " fill="#FFFFFF" transform="translate(812.80859375,599.58984375)"/>
<path d="M0 0 C1.271 0.171 2.542 0.343 3.852 0.52 C6.949 1.107 9.517 1.89 12.375 3.188 C10.735 7.827 8.306 11.826 5.75 16 C5.33 16.693 4.91 17.386 4.477 18.1 C3.446 19.798 2.411 21.493 1.375 23.188 C0.314 23.028 -0.747 22.868 -1.84 22.703 C-8.707 21.768 -14.677 21.038 -20.625 25.188 C-28.203 33.397 -26.987 47.456 -27.25 57.938 C-27.374 62.31 -27.497 66.683 -27.625 71.188 C-40.495 71.188 -53.365 71.188 -66.625 71.188 C-66.625 48.087 -66.625 24.987 -66.625 1.188 C-54.415 1.188 -42.205 1.188 -29.625 1.188 C-29.46 2.508 -29.46 2.508 -28.625 9.188 C-28.371 8.946 -28.371 8.946 -27.086 7.727 C-18.878 0.195 -11.096 -1.571 0 0 Z " fill="#FFFFFF" transform="translate(1397.625,587.8125)"/>
<path d="M0 0 C5.61 0 11.22 0 17 0 C17 10.89 17 21.78 17 33 C19.31 31.845 19.31 31.845 31 26 C44.801 22.784 60.734 22.668 73.191 30.352 C79.076 34.946 81.088 40.73 82 48 C82.132 51.696 82.116 55.388 82.098 59.086 C82.096 60.143 82.095 61.2 82.093 62.289 C82.088 65.651 82.075 69.013 82.062 72.375 C82.057 74.66 82.053 76.945 82.049 79.23 C82.038 84.82 82.021 90.41 82 96 C76.06 96 70.12 96 64 96 C63.991 94.552 63.981 93.105 63.972 91.613 C63.932 86.225 63.866 80.837 63.792 75.449 C63.764 73.121 63.743 70.792 63.729 68.463 C63.708 65.109 63.661 61.756 63.609 58.402 C63.608 57.367 63.607 56.331 63.606 55.264 C63.48 48.996 62.768 45.082 59 40 C51.555 35.442 42.966 35.301 34.625 37.25 C28.286 38.924 23.559 41.354 20 47 C18.077 53.126 17.675 59.251 17.586 65.629 C17.567 66.504 17.547 67.379 17.527 68.281 C17.468 71.041 17.421 73.802 17.375 76.562 C17.337 78.449 17.298 80.335 17.258 82.221 C17.161 86.814 17.081 91.407 17 96 C11.39 96 5.78 96 0 96 C0 64.32 0 32.64 0 0 Z " fill="#FFFFFF" transform="translate(361,563)"/>
<path d="M0 0 C0.66 -0.99 1.32 -1.98 2 -3 C2.059 -2.398 2.119 -1.796 2.18 -1.176 C3.364 1.965 5.137 2.4 8.125 3.812 C16.98 8.395 22.442 14.239 25.582 23.766 C27.575 34.422 26.707 45.939 20.609 55.086 C17.566 58.883 14.221 61.601 10 64 C9.34 64 8.68 64 8 64 C8 71.92 8 79.84 8 88 C7.67 88 7.34 88 7 88 C6.67 80.74 6.34 73.48 6 66 C4.164 66.639 2.329 67.279 0.438 67.938 C-15.412 73.458 -33.6 72.418 -48.941 65.715 C-56.278 61.694 -62.8 55.702 -65.938 47.812 C-69.046 36.659 -69.067 26.167 -63.438 15.875 C-56.72 5.46 -46.399 0.949 -34.617 -1.785 C-23.211 -3.747 -11.099 -3.469 0 0 Z M-46 19 C-50.419 26.697 -50.659 34.819 -48.844 43.355 C-46.504 50.689 -41.824 54.635 -35.148 58.09 C-26.811 61.622 -14.688 61.5 -6.25 58.25 C-0.051 55.235 4.479 51.617 7 45 C7.216 41.96 6.804 39.124 6.312 36.125 C6.1 34.607 5.888 33.089 5.676 31.57 C5.559 30.823 5.443 30.075 5.323 29.304 C4.888 26.205 4.661 23.094 4.453 19.971 C3.715 16.763 1.795 15.176 -0.797 13.285 C-15.626 4.635 -34.369 5.483 -46 19 Z " fill="#FFFFFF" transform="translate(529,590)"/>
<path d="M0 0 C5.611 -0.359 9.129 0.589 14.125 3.125 C14.714 3.415 14.714 3.415 17.695 4.883 C21.866 7.555 24.754 10.507 27 15 C27.481 21.137 26.352 25.932 22.562 30.875 C19.54 33.051 16.133 33.156 12.5 33.188 C12.124 33.195 12.124 33.195 10.219 33.23 C7.67 32.966 6.149 32.389 4 31 C2.77 29.414 2.77 29.414 1.812 27.625 C1.489 27.04 1.165 26.455 0.832 25.852 C-0.674 22.499 -1.127 19.399 -1.133 15.742 C-1.134 14.952 -1.135 14.162 -1.137 13.348 C-1.135 12.94 -1.135 12.94 -1.125 10.875 C-1.129 10.051 -1.133 9.228 -1.137 8.379 C-1.127 2.253 -1.127 2.253 0 0 Z " fill="#087BB5" transform="translate(204,383)"/>
<path d="M0 0 C-0.33 2.779 -0.709 3.77 -2.941 5.535 C-3.806 6.039 -4.671 6.543 -5.562 7.062 C-10.436 10.011 -15.139 13.119 -19.812 16.375 C-25.122 20.049 -30.459 23.672 -35.875 27.188 C-36.169 27.381 -36.169 27.381 -37.659 28.359 C-41.762 31 -41.762 31 -44 31 C-45.718 24.714 -43.727 19.739 -41 14 C-35.285 5.886 -27.979 -0.698 -18.07 -2.719 C-11.175 -3.655 -6.224 -3.178 0 0 Z " fill="#087BB5" transform="translate(420,348)"/>
<path d="M0 0 C3.032 2.198 3.817 3.45 5 7 C5.096 9.553 5.139 12.073 5.125 14.625 C5.127 14.972 5.127 14.972 5.137 16.727 C5.127 21.873 5.127 21.873 4 23 C-2.587 22.597 -8.451 20.703 -13.062 15.812 C-14.44 11.679 -14.116 8.182 -13 4 C-10.059 -1.024 -5.305 -0.985 0 0 Z " fill="#087BB5" transform="translate(223,291)"/>
<path d="M0 0 C0.585 0.001 0.585 0.001 3.546 0.007 C3.868 0.007 3.868 0.007 5.497 0.006 C7.635 0.007 9.772 0.015 11.909 0.023 C13.388 0.024 14.866 0.026 16.344 0.027 C20.242 0.031 24.14 0.041 28.038 0.052 C32.013 0.062 35.987 0.066 39.962 0.071 C47.766 0.082 55.57 0.099 63.374 0.12 C63.044 0.78 62.714 1.44 62.374 2.12 C41.584 2.45 20.794 2.78 -0.626 3.12 C-0.626 15.99 -0.626 28.86 -0.626 42.12 C3.334 42.45 7.294 42.78 11.374 43.12 C12.034 43.45 12.694 43.78 13.374 44.12 C13.374 44.78 13.374 45.44 13.374 46.12 C7.764 45.79 2.154 45.46 -3.626 45.12 C-3.651 38.872 -3.669 32.624 -3.681 26.376 C-3.686 24.249 -3.693 22.122 -3.701 19.995 C-3.713 16.944 -3.719 13.893 -3.724 10.843 C-3.729 9.886 -3.734 8.928 -3.739 7.942 C-3.739 7.061 -3.739 6.18 -3.739 5.273 C-3.742 4.493 -3.744 3.714 -3.746 2.911 C-3.549 -0.021 -2.947 0.135 0 0 Z " fill="#AAAAAA" transform="translate(135.62586975097656,493.87974548339844)"/>
<path d="M0 0 C2.389 3.583 2.269 5.314 2.25 9.562 C2.255 10.719 2.26 11.875 2.266 13.066 C2 16 2 16 0 18 C-1.674 12.141 -1.52 5.89 0 0 Z " fill="#087BB5" transform="translate(535,613)"/>
<path d="M0 0 C0.99 0.66 1.98 1.32 3 2 C2.497 6.401 0.912 8.712 -2 12 C-1.858 10.562 -1.711 9.125 -1.562 7.688 C-1.481 6.887 -1.4 6.086 -1.316 5.262 C-1 3 -1 3 0 0 Z " fill="#AAAAAA" transform="translate(928,233)"/>
</svg>
