<?xml version="1.0" encoding="UTF-8"?>
<!-- Generator: visioncortex VTracer 0.6.12 -->
<svg version="1.1" xmlns="http://www.w3.org/2000/svg" width="1411" height="509">
<path d="M0 0 C15.44657419 -0.04671385 30.89314309 -0.08198583 46.33977127 -0.10362434 C53.51185721 -0.11393838 60.68389926 -0.12800114 67.85595703 -0.15087891 C74.10687977 -0.1708089 80.35777073 -0.18371551 86.60872436 -0.18817699 C89.91878323 -0.19078504 93.22872994 -0.19796503 96.53876495 -0.21146011 C100.23325547 -0.22592685 103.92755614 -0.22797994 107.62207031 -0.22705078 C108.72042709 -0.23424133 109.81878387 -0.24143188 110.95042419 -0.24884033 C111.95720718 -0.246091 112.96399017 -0.24334167 114.00128174 -0.24050903 C114.43821161 -0.24143083 114.43821161 -0.24143083 116.64934158 -0.24609566 C119.20290605 0.02124269 120.78709145 0.73421332 123 2 C123.63679687 2.26039062 124.27359375 2.52078125 124.9296875 2.7890625 C131.4003859 5.56964374 135.02600925 9.90404488 138.06036663 16.20022011 C139.19032283 19.5670957 139.25470828 22.34181982 139.26069641 25.89413452 C139.26452196 26.57542093 139.26834751 27.25670734 139.27228898 27.95863879 C139.28258312 30.23471205 139.27863372 32.51053137 139.2746582 34.78662109 C139.2790067 36.42130262 139.2841903 38.05598211 139.29014587 39.69065857 C139.30353309 44.12666442 139.3041148 48.56258505 139.30158257 52.99860716 C139.30051257 56.70382962 139.30539705 60.40903487 139.310188 64.11425364 C139.32128245 72.85710668 139.32172108 81.59991676 139.31567383 90.34277344 C139.30963466 99.35698223 139.32194374 108.37103491 139.3432439 117.38521707 C139.36086795 125.12889773 139.36685994 132.87252873 139.36360615 140.6162287 C139.36179427 145.23919457 139.36441997 149.86204911 139.37832069 154.4849968 C139.39090731 158.83363746 139.38894707 163.18203509 139.37590981 167.53067207 C139.3735462 169.1241686 139.37627098 170.71768227 139.38453293 172.31115913 C139.39502095 174.49168584 139.38688414 176.67140013 139.3742218 178.85189819 C139.37438954 180.07046698 139.37455729 181.28903576 139.37473011 182.54453087 C138.62424868 189.46488595 135.32918971 195.4887195 130 200 C126.625 200.9375 126.625 200.9375 124 201 C123.67 201.99 123.34 202.98 123 204 C80.76 204 38.52 204 -5 204 C-5.33 203.01 -5.66 202.02 -6 201 C-6.86625 200.979375 -7.7325 200.95875 -8.625 200.9375 C-13.24124645 199.65520932 -15.4651244 196.98809419 -18 193 C-18.66796875 190.76953125 -18.66796875 190.76953125 -19 189 C-19.66 189 -20.32 189 -21 189 C-21.82596894 184.67765822 -22.12557277 180.59782756 -22.12698364 176.19993591 C-22.12854363 175.54088526 -22.13010362 174.88183461 -22.13171089 174.20281273 C-22.13567975 172.00815082 -22.13254728 169.81355884 -22.12939453 167.61889648 C-22.13075038 166.03993693 -22.13253135 164.46097769 -22.13470459 162.88201904 C-22.13925664 158.60324156 -22.13749862 154.32448823 -22.1343255 150.04571033 C-22.13179085 145.56506457 -22.13414249 141.08442086 -22.13571167 136.60377502 C-22.13752994 129.08097971 -22.13513582 121.55819422 -22.13037109 114.03540039 C-22.12492716 105.33985273 -22.12669347 96.64432852 -22.1321975 87.94878143 C-22.136736 80.47942766 -22.13737562 73.01008095 -22.13475883 65.54072624 C-22.13320038 61.08108102 -22.13299053 56.62144681 -22.13629532 52.16180229 C-22.13918479 47.96999387 -22.1371785 43.77821568 -22.13140106 39.58641052 C-22.13007934 38.04851392 -22.13045763 36.51061478 -22.13266373 34.97271919 C-22.13539823 32.87280532 -22.13196597 30.77298817 -22.12698364 28.67308044 C-22.12660662 27.49821296 -22.12622959 26.32334547 -22.12584114 25.11287594 C-22.0116065 22.28710481 -21.64882842 19.74652707 -21 17 C-20.34 17 -19.68 17 -19 17 C-18.773125 16.113125 -18.54625 15.22625 -18.3125 14.3125 C-16.80204839 10.50040783 -15.05667628 8.69278624 -12 6 C-11.7009375 5.71125 -11.7009375 5.71125 -10.1875 4.25 C-6.88694643 2.36396939 -3.77262662 2.31438555 0 2 C0 1.34 0 0.68 0 0 Z M70 18 C67.30342896 22.04485657 67.4577323 25.25307196 68 30 C69.2469709 32.93038162 70.22345655 34.41759241 72.75 36.3125 C77.05905126 37.62915455 80.67058152 37.63449518 84.75 35.6875 C89.82 31.885 89.82 31.885 90.46875 28.6953125 C90.52349274 24.1927219 90.54051844 21.76308485 87.875 18 C81.03163361 13.23939729 76.70714932 13.27019423 70 18 Z M102 20 C100.63574757 24.26232539 100.49057313 27.69813134 102.125 31.875 C105.28434905 35.45559559 107.66858936 36.83054774 112.4375 37.4375 C116.68345227 36.91606726 118.73817577 35.73082959 122 33 C124.35242347 29.79214982 124.4684209 26.90350748 124 23 C121.96006092 19.3421782 120.49580738 17.33053826 117 15 C110.44099008 13.81313154 106.22599708 14.82315357 102 20 Z M23.625 64.5625 C14.73697038 74.10087325 9.29384027 86.99665511 8.91015625 100.05859375 C9.63444986 114.340178 15.45604648 127.03880789 25.8125 136.875 C31.98474305 142.11717903 38.76010653 146.34948209 47 147 C47 147.66 47 148.32 47 149 C50.91620319 150.27149454 54.86572229 150.18378826 58.9375 150.1875 C59.64068359 150.19974609 60.34386719 150.21199219 61.06835938 150.22460938 C65.2145298 150.23626684 68.26798855 149.77596551 72 148 C72.89976562 147.67902344 73.79953125 147.35804688 74.7265625 147.02734375 C87.72664913 142.13917102 97.67587062 133.50795161 103.75 120.9375 C104.05292969 120.33873047 104.35585938 119.73996094 104.66796875 119.12304688 C109.54883452 109.22031254 109.7618925 95.06805708 106.875 84.4375 C101.55116295 70.09063395 92.11981475 60.79887238 78.5625 54.25 C59.54571549 45.97836366 38.76847599 50.65429244 23.625 64.5625 Z " fill="#ffffff" transform="translate(867,32)"/>
<path d="M0 0 C0.70744354 0.00141495 1.41488708 0.0028299 2.14376831 0.00428772 C4.40578419 0.00989025 6.66770148 0.02244307 8.9296875 0.03515625 C10.46223815 0.04017093 11.99479036 0.04473389 13.52734375 0.04882812 C17.28649638 0.05986048 21.04557522 0.07712673 24.8046875 0.09765625 C26.94968284 3.68667178 27.48379473 7.36700654 28.06640625 11.4375 C28.12212296 11.80667542 28.12212296 11.80667542 28.40408325 13.67492676 C28.77295232 16.12745732 29.13246749 18.58126855 29.4921875 21.03515625 C29.74947697 22.75605563 30.00754847 24.47683825 30.26635742 26.19750977 C30.67701389 28.92793296 31.08719875 31.65841724 31.49501038 34.38926697 C32.54308359 41.40044158 33.62315467 48.4062593 34.71875 55.41015625 C34.87743057 56.42485489 35.03611115 57.43955353 35.19960022 58.48500061 C35.82562839 62.48506192 36.45244149 66.48499958 37.07992554 70.48483276 C37.51663255 73.27096634 37.95180645 76.05733579 38.38671875 78.84375 C38.51563507 79.66307007 38.64455139 80.48239014 38.77737427 81.32653809 C39.54345131 86.24163023 40.21088511 91.15870047 40.8046875 96.09765625 C43.11780238 84.64600835 44.82213805 73.17939085 46.30993652 61.59484863 C46.94464106 56.66452076 47.59806193 51.73666746 48.25 46.80859375 C48.38019531 45.8227832 48.51039063 44.83697266 48.64453125 43.82128906 C49.80306536 35.06727819 50.98535229 26.31703949 52.23736572 17.5758667 C52.4481744 16.0955835 52.65567772 14.61482566 52.85980225 13.13360596 C53.1400096 11.10477531 53.43291035 9.07770956 53.7265625 7.05078125 C53.88737305 5.91801758 54.04818359 4.78525391 54.21386719 3.61816406 C54.31135254 3.20228027 54.31135254 3.20228027 54.8046875 1.09765625 C59.21741789 -1.10870894 65.18417056 -0.12943955 70.09033203 -0.14257812 C72.29627869 -0.15230667 74.50130243 -0.18334037 76.70703125 -0.21484375 C78.10416112 -0.22137165 79.50129767 -0.22662296 80.8984375 -0.23046875 C82.17396484 -0.23981445 83.44949219 -0.24916016 84.76367188 -0.25878906 C85.76720703 -0.14116211 86.77074219 -0.02353516 87.8046875 0.09765625 C90.14703084 3.61117126 90.56994627 6.71119981 91.171875 10.7890625 C91.29137512 11.55763077 91.41087524 12.32619904 91.53399658 13.11805725 C91.92299496 15.63105547 92.30142588 18.14552149 92.6796875 20.66015625 C92.94709461 22.40228232 93.21516521 24.14430666 93.48388672 25.88623047 C94.0185963 29.35959912 94.5492388 32.83354872 95.07617188 36.30810547 C95.68883824 40.3450752 96.31347118 44.38004288 96.9453125 48.4140625 C99.37486933 63.95501033 101.61227572 79.52166326 103.8046875 95.09765625 C105.31604165 93.5863021 105.18404083 92.07194502 105.46557617 89.96899414 C105.52603622 89.52556419 105.52603622 89.52556419 105.83200073 87.28153992 C105.89645889 86.79293739 105.89645889 86.79293739 106.22265625 84.3203125 C106.29154556 83.81130653 106.29154556 83.81130653 106.64016724 81.23542786 C106.93834078 79.02996966 107.23469173 76.82426448 107.52944946 74.61834717 C108.14881781 69.98960731 108.77961145 65.36244888 109.40977478 60.73516846 C109.89365872 57.18084109 110.37622877 53.62633764 110.85839844 50.07177734 C110.93733337 49.49007782 110.93733337 49.49007782 111.33679199 46.54632568 C111.64235988 44.2941078 111.9477861 42.04187069 112.25305176 39.78961182 C113.07004692 33.76842391 113.89558308 27.74854069 114.73501587 21.73043823 C114.9897204 19.89246937 115.24100505 18.05402333 115.48886108 16.21511841 C115.83189844 13.67212411 116.18599849 11.13091385 116.54296875 8.58984375 C116.59232071 8.21399391 116.59232071 8.21399391 116.84207153 6.31196594 C117.09398879 4.56253764 117.43975466 2.82704507 117.8046875 1.09765625 C120.76279226 -0.38139613 123.759403 -0.02425278 127 0 C127.70744354 0.00141495 128.41488708 0.0028299 129.14376831 0.00428772 C131.40578419 0.00989025 133.66770148 0.02244307 135.9296875 0.03515625 C137.46223815 0.04017093 138.99479036 0.04473389 140.52734375 0.04882812 C144.28649638 0.05986048 148.04557522 0.07712673 151.8046875 0.09765625 C152.98019191 4.1101901 152.41757204 7.31498593 151.6171875 11.34765625 C151.32567937 12.91124557 151.03537799 14.47506021 150.74609375 16.0390625 C150.66818604 16.45486572 150.66818604 16.45486572 150.27392578 18.55908203 C149.49114302 22.7939286 148.76707607 27.03796346 148.0546875 31.28515625 C147.89468262 32.2380957 147.73467773 33.19103516 147.56982422 34.17285156 C146.35155536 41.54117645 145.21475998 48.92044441 144.09765625 56.3046875 C143.94585907 57.30759323 143.79406189 58.31049896 143.63766479 59.34379578 C142.8716139 64.41230055 142.11011867 69.48144452 141.35449219 74.55151367 C139.90956893 84.19497324 138.3468626 93.78654996 136.49926758 103.36083984 C135.43301277 109.09725326 134.57570828 114.86147759 133.7277832 120.63363647 C133.20113195 124.21392686 132.6628636 127.79247336 132.125 131.37109375 C132.01549011 132.10049667 131.90598022 132.8298996 131.79315186 133.58140564 C130.10430578 144.79253352 128.28015175 155.98204808 126.44726562 167.17041016 C126.00124753 169.89633988 125.55696689 172.62249852 125.11523438 175.34912109 C124.54279766 178.88202929 123.96619143 182.41423268 123.38647461 185.94595337 C123.06050579 187.93711553 122.73822698 189.92888065 122.41601562 191.9206543 C122.21943359 193.11086182 122.02285156 194.30106934 121.8203125 195.52734375 C121.64790039 196.58163574 121.47548828 197.63592773 121.29785156 198.72216797 C120.8046875 201.09765625 120.8046875 201.09765625 119.8046875 202.09765625 C117.58613486 202.18549167 115.36480254 202.20460234 113.14453125 202.1953125 C112.81229805 202.19460503 112.81229805 202.19460503 111.1309967 202.19102478 C109.00134851 202.18541143 106.87180411 202.17285679 104.7421875 202.16015625 C103.30143381 202.15514296 101.86067847 202.15057976 100.41992188 202.14648438 C96.88147648 202.1354377 93.34309211 202.11816417 89.8046875 202.09765625 C87.75709383 196.71608119 86.94000851 191.34765663 86.10546875 185.68359375 C86.02748802 185.16971603 86.02748802 185.16971603 85.63285828 182.56918335 C85.29747103 180.35567102 84.96444556 178.14179979 84.63354492 175.9276123 C83.7594595 170.07909226 82.8686357 164.23311379 81.98046875 158.38671875 C81.80049347 157.19860596 81.62051819 156.01049316 81.43508911 154.78637695 C79.61596245 142.79757059 77.71943377 130.8215094 75.8046875 118.84765625 C75.49910375 116.9340822 75.19352104 115.02050799 74.88793945 113.10693359 C74.19495685 108.77027705 73.50038045 104.43387878 72.8046875 100.09765625 C72.66369629 101.09506836 72.52270508 102.09248047 72.37744141 103.12011719 C71.8458851 106.87765266 71.3123741 110.63490859 70.77832031 114.39208984 C70.54895918 116.007576 70.32010395 117.62313407 70.09179688 119.23876953 C67.95050624 134.38746161 67.95050624 134.38746161 66.82421875 140.9296875 C65.91140726 146.27286183 65.14889552 151.63164298 64.40234375 157 C64.27784851 157.89194061 64.15335327 158.78388123 64.02508545 159.70285034 C63.50811325 163.4120248 62.9921976 167.12131407 62.48461914 170.83178711 C62.10834244 173.57612424 61.72461376 176.31934241 61.33984375 179.0625 C61.23035904 179.87645737 61.12087433 180.69041473 61.0080719 181.52903748 C60.01291787 188.55704498 58.420747 195.09473177 56.8046875 202.09765625 C46.9046875 202.09765625 37.0046875 202.09765625 26.8046875 202.09765625 C24.99099524 197.5634256 24.04655846 193.45369847 23.2890625 188.6875 C23.15278946 187.85986649 23.01651642 187.03223297 22.87611389 186.17951965 C22.43042398 183.46555633 21.99263335 180.75037895 21.5546875 178.03515625 C21.24499157 176.14280424 20.93468174 174.2505526 20.6237793 172.35839844 C19.98856163 168.48854589 19.35610277 164.6182593 18.72607422 160.74755859 C17.37369444 152.4447278 15.99779273 144.1458333 14.6171875 135.84765625 C14.49268219 135.09770386 14.36817688 134.34775146 14.23989868 133.57507324 C12.66956328 124.12251905 11.02885459 114.68685724 9.27270508 105.2668457 C7.81822977 97.37746464 6.56205608 89.4577645 5.3046875 81.53515625 C3.77401835 71.89072211 2.14118469 62.2800779 0.25830078 52.69750977 C-1.24500783 44.99858561 -2.53740671 37.26909735 -3.80102539 29.52758789 C-3.95434326 28.58906982 -4.10766113 27.65055176 -4.265625 26.68359375 C-4.34055176 26.22388184 -4.34055176 26.22388184 -4.71972656 23.89746094 C-5.36178238 20.1176375 -6.0859432 16.35450695 -6.82373047 12.59228516 C-7.20152431 10.05595303 -7.26007907 7.65794191 -7.1953125 5.09765625 C-7.8553125 5.09765625 -8.5153125 5.09765625 -9.1953125 5.09765625 C-9.1953125 3.77765625 -9.1953125 2.45765625 -9.1953125 1.09765625 C-6.23720774 -0.38139613 -3.240597 -0.02425278 0 0 Z " fill="#464fa1" transform="translate(669.1953125,33.90234375)"/>
<path d="M0 0 C1.05845627 -0.00990463 2.11691254 -0.01980927 3.20744324 -0.03001404 C4.36339996 -0.02551239 5.51935669 -0.02101074 6.71034241 -0.01637268 C7.93184494 -0.02323593 9.15334747 -0.03009918 10.41186523 -0.03717041 C13.75915265 -0.05233717 17.10588326 -0.05393207 20.45316386 -0.04822803 C23.24890675 -0.04513717 26.04459923 -0.05122749 28.84033495 -0.05726677 C35.43669521 -0.07131322 42.03292596 -0.06974992 48.62928772 -0.05836487 C55.43109828 -0.04688453 62.2325145 -0.06095725 69.03427309 -0.08776134 C74.87729923 -0.10992393 80.72020163 -0.11655447 86.56326681 -0.11068493 C90.05164218 -0.1073153 93.53976481 -0.10973038 97.02810478 -0.12693596 C100.91843477 -0.14528682 104.80828049 -0.13121216 108.69862366 -0.11402893 C109.2755899 -0.11886292 109.2755899 -0.11886292 112.19538879 -0.14332581 C120.00119812 -0.07099458 120.00119812 -0.07099458 123.96109009 2.29403687 C126.58482833 5.33214397 126.89792867 6.98831818 126.9365387 10.91569519 C126.94802948 11.86898712 126.95952026 12.82227905 126.97135925 13.80445862 C126.97506027 14.3291423 126.97506027 14.3291423 126.99378967 16.98435974 C127.00517975 18.08692108 127.01656982 19.18948242 127.02830505 20.32545471 C127.12583156 30.49407137 127.17723926 40.66332527 127.21399689 50.83233261 C127.24156489 58.34771333 127.29231533 65.86214955 127.37447119 73.37713695 C127.43703121 79.30056483 127.46122154 85.22378587 127.47225952 91.14754486 C127.48268018 93.6658075 127.50515131 96.18404998 127.53985596 98.70209503 C127.58592608 102.22663497 127.58807706 105.74864922 127.57972717 109.27342224 C127.60332306 110.31469269 127.62691895 111.35596313 127.65122986 112.42878723 C127.57312889 119.23536872 127.57312889 119.23536872 125.37797451 122.38171577 C121.6821014 125.85252587 118.60662668 127.13403244 113.46669006 127.0688324 C112.86633186 127.0686058 112.86633186 127.0686058 109.82815552 127.06745911 C109.19000664 127.05197525 109.19000664 127.05197525 105.96058655 126.97361755 C104.62539588 126.96241021 103.29018034 126.95387729 101.95495605 126.94789124 C98.46086569 126.92511218 94.96830041 126.8662901 91.47480774 126.79966736 C87.90191779 126.7380044 84.32877847 126.71082553 80.75550842 126.6806488 C73.75944393 126.61653102 66.76438557 126.5142888 59.7691803 126.38768005 C59.6377211 125.70088165 59.5062619 125.01408325 59.37081909 124.30647278 C59.19523972 123.40562958 59.01966034 122.50478638 58.83876038 121.5766449 C58.66605118 120.6835965 58.49334198 119.7905481 58.31539917 118.87043762 C57.07354985 113.22579414 54.42924039 108.2374613 50.5816803 103.95018005 C44.19670227 100.40297004 38.89078274 98.77133296 31.5816803 100.20018005 C26.60812082 101.73885506 23.35258748 103.57925071 20.1676178 107.7197113 C17.75388301 112.32468578 16.61681701 117.23747604 15.4957428 122.2900238 C14.7691803 125.38768005 14.7691803 125.38768005 13.7691803 126.38768005 C11.00555421 126.54187378 8.28415474 126.61939923 5.5191803 126.63768005 C5.13697327 126.64799255 5.13697327 126.64799255 3.20277405 126.70018005 C-1.46148587 126.73240292 -4.41806749 126.36278216 -8.2308197 123.38768005 C-11.35735448 119.81449745 -12.35813928 116.80365515 -12.34434509 112.09983826 C-12.34426956 111.23917252 -12.34419403 110.37850677 -12.34411621 109.49176025 C-12.33895493 108.5666716 -12.33379364 107.64158295 -12.32847595 106.6884613 C-12.327061 105.73827621 -12.32564606 104.78809113 -12.32418823 103.80911255 C-12.31858846 100.77276976 -12.30603602 97.73650057 -12.2933197 94.70018005 C-12.28830467 92.64223841 -12.28374177 90.58429561 -12.27964783 88.52635193 C-12.2686191 83.48009959 -12.25135463 78.4339023 -12.2308197 73.38768005 C-12.70765198 73.37515198 -12.70765198 73.37515198 -15.12071228 73.31175232 C-18.65991077 73.21755935 -22.19891845 73.11736774 -25.73789978 73.0153656 C-27.26942988 72.97206172 -28.80100685 72.93038339 -30.33262634 72.8903656 C-32.53451152 72.83255273 -34.73616181 72.76889036 -36.93785095 72.7040863 C-37.62232803 72.68737381 -38.30680511 72.67066132 -39.01202393 72.65344238 C-42.00202074 72.56032455 -44.37144281 72.34080569 -47.2308197 71.38768005 C-48.73744068 68.37443811 -48.40852343 65.70481628 -48.2308197 62.38768005 C-46.2308197 60.38768005 -46.2308197 60.38768005 -42.88267517 60.16062927 C-41.45441337 60.1609463 -40.02612758 60.17226644 -38.5980072 60.19236755 C-38.22208939 60.1937825 -38.22208939 60.1937825 -36.31971741 60.20094299 C-33.91492392 60.21215131 -31.51050089 60.23725653 -29.1058197 60.26268005 C-27.47691883 60.27270904 -25.84801212 60.28183503 -24.21910095 60.2900238 C-20.22286414 60.31209271 -16.22690476 60.34662655 -12.2308197 60.38768005 C-12.2308197 58.40768005 -12.2308197 56.42768005 -12.2308197 54.38768005 C-13.06226501 54.42248474 -13.89371033 54.45728943 -14.75035095 54.4931488 C-15.2936908 54.50668396 -15.2936908 54.50668396 -18.0433197 54.57518005 C-19.12226501 54.60998474 -20.20121033 54.64478943 -21.31285095 54.6806488 C-24.2308197 54.38768005 -24.2308197 54.38768005 -26.09410095 53.0947113 C-28.00185438 50.22980323 -27.58680811 47.71023857 -27.2308197 44.38768005 C-26.09410095 42.6806488 -26.09410095 42.6806488 -24.2308197 41.38768005 C-21.31285095 41.0947113 -21.31285095 41.0947113 -18.0433197 41.20018005 C-16.95664001 41.22725037 -15.86996033 41.25432068 -14.75035095 41.2822113 C-14.3346283 41.29961365 -14.3346283 41.29961365 -12.2308197 41.38768005 C-12.5608197 39.73768005 -12.8908197 38.08768005 -13.2308197 36.38768005 C-13.53842224 36.39291687 -13.53842224 36.39291687 -15.09507751 36.41941833 C-17.89028313 36.461067 -20.68542336 36.48703422 -23.4808197 36.51268005 C-23.96486267 36.52105896 -23.96486267 36.52105896 -26.41441345 36.5634613 C-26.88169861 36.56668396 -26.88169861 36.56668396 -29.2464447 36.58299255 C-30.10528259 36.59346619 -30.96412048 36.60393982 -31.84898376 36.61473083 C-34.48144702 36.36378877 -36.04992965 35.88073223 -38.2308197 34.38768005 C-39.2308197 31.01268005 -39.2308197 31.01268005 -39.2308197 27.38768005 C-37.2048722 24.71857461 -35.97189328 23.54537329 -32.66539001 22.84178162 C-32.19407654 22.83130798 -32.19407654 22.83130798 -29.8089447 22.77830505 C-28.78414001 22.74607849 -27.75933533 22.71385193 -26.70347595 22.6806488 C-25.63999939 22.66646912 -24.57652283 22.65228943 -23.4808197 22.63768005 C-22.40187439 22.60803162 -21.32292908 22.57838318 -20.21128845 22.5478363 C-17.55105726 22.4772107 -14.89169868 22.42447809 -12.2308197 22.38768005 C-12.26562439 21.51885193 -12.30042908 20.6500238 -12.33628845 19.75486755 C-12.61293352 7.97769167 -12.61293352 7.97769167 -9.2308197 3.38768005 C-6.14352402 0.57446664 -4.14499155 0.01095979 0 0 Z " fill="#ffffff" transform="translate(627.2308197021484,314.61231994628906)"/>
<path d="M0 0 C74.08333333 0 74.08333333 0 88.1328125 12.96875 C100.4832667 25.91166141 100.35681558 42.75167899 100.31567383 59.65332031 C100.31251395 62.36304002 100.33604848 65.07166441 100.36132812 67.78125 C100.41730954 82.62031095 99.63576949 95.90805398 90 108 C88.989375 108.845625 87.97875 109.69125 86.9375 110.5625 C85 113 85 113 85.13842773 114.97949219 C85.22838013 115.37217285 85.22838013 115.37217285 85.68359375 117.359375 C85.88509033 118.25599854 86.08658691 119.15262207 86.29418945 120.07641602 C86.52710693 121.04119873 86.76002441 122.00598145 87 123 C87.11549194 123.48529175 87.11549194 123.48529175 87.69995117 125.94116211 C88.48976104 129.19482692 89.30419576 132.44151874 90.125 135.6875 C90.42704346 136.88850342 90.72908691 138.08950684 91.0402832 139.3269043 C94.01962329 151.14152879 97.05355465 162.94221617 100.10546875 174.73828125 C100.41145996 175.92244629 100.71745117 177.10661133 101.03271484 178.32666016 C101.71443971 180.91556281 102.41049598 183.49665142 103.12744141 186.07568359 C103.22018593 186.41261986 103.22018593 186.41261986 103.68952942 188.11772156 C104.20790056 189.9954206 104.73325112 191.87118881 105.2590332 193.74682617 C106 197 106 197 106 202 C94.45 202 82.9 202 71 202 C68.91264811 197.12951225 67.42525721 193.27851068 66.23828125 188.2578125 C66.16237511 187.94096497 66.16237511 187.94096497 65.77824402 186.33752441 C65.28379983 184.26802777 64.79807182 182.1965946 64.3125 180.125 C63.96806547 178.67482063 63.62300279 177.22479033 63.27734375 175.77490234 C62.73842388 173.51351772 62.20010292 171.25200394 61.66421509 168.98989868 C60.36734112 163.51832153 59.04090604 158.05449839 57.69921875 152.59375 C57.32702968 151.07536723 56.95487743 149.55697544 56.58276367 148.03857422 C56.04412419 145.84111338 55.50466041 143.64387495 54.96231079 141.44732666 C54.46128155 139.41616807 53.96454737 137.38400346 53.46875 135.3515625 C53.18451172 134.19479004 52.90027344 133.03801758 52.60742188 131.84619141 C52 129 52 129 52 126 C45.73 126 39.46 126 33 126 C33.00523682 128.26673584 33.01047363 130.53347168 33.01586914 132.86889648 C33.03240568 140.34077457 33.04347148 147.81265344 33.05181217 155.28454494 C33.05704078 159.81674094 33.06413801 164.34891827 33.07543945 168.88110352 C33.08626914 173.2512283 33.09227701 177.62133508 33.09487724 181.99147224 C33.09673135 183.66250963 33.10035168 185.33354597 33.10573006 187.00457573 C33.11294159 189.33697551 33.1139909 191.66929993 33.11352539 194.00170898 C33.11712067 194.6994191 33.12071594 195.39712921 33.12442017 196.11598206 C33.11405216 200.88594784 33.11405216 200.88594784 32 202 C21.77 202 11.54 202 1 202 C0.67 135.34 0.34 68.68 0 0 Z M33 33 C33 53.46 33 73.92 33 95 C55.78571429 95 55.78571429 95 61.8125 91.25 C66.88738254 86.03012082 67.4507334 81.01137877 67.3984375 74.09375 C67.39987259 73.67228699 67.39987259 73.67228699 67.40713501 71.53942871 C67.40916862 69.76439743 67.40368813 67.98934337 67.39111328 66.21435547 C67.37504913 63.50827591 67.39098544 60.80368974 67.41015625 58.09765625 C67.40817369 56.36718423 67.40432976 54.63671313 67.3984375 52.90625 C67.40451019 52.10296265 67.41058289 51.29967529 67.4168396 50.4720459 C67.35609682 45.58390205 66.67598819 42.2450576 64 38 C54.59577192 29.30108902 48.32538472 33 33 33 Z " fill="#464fa1" transform="translate(1036,34)"/>
<path d="M0 0 C7.43405177 -0.05115413 14.86805733 -0.08592219 22.30224609 -0.10986328 C24.82570085 -0.11985525 27.34914422 -0.13345337 29.87255859 -0.15087891 C72.56517707 -0.43808687 72.56517707 -0.43808687 87.5 13 C97.12504572 22.9451692 99.31325194 35.73371256 99.30078125 48.9921875 C99.30506638 50.01877472 99.3093515 51.04536194 99.31376648 52.10305786 C99.31947908 54.26287096 99.32003285 56.42270328 99.31567383 58.58251953 C99.31251568 61.85873755 99.33600627 65.13404963 99.36132812 68.41015625 C99.36360185 70.52083221 99.36430428 72.63151056 99.36328125 74.7421875 C99.372491 75.70712128 99.38170074 76.67205505 99.39118958 77.66622925 C99.33094881 86.67137171 97.71688451 95.29477374 92.625 102.875 C92.06039062 103.73867187 91.49578125 104.60234375 90.9140625 105.4921875 C89 108 89 108 86.21484375 110.421875 C84 113 84 113 84.02734375 116.0234375 C84.17751953 116.57644531 84.17751953 116.57644531 84.9375 119.375 C85.2571875 120.61378906 85.576875 121.85257812 85.90625 123.12890625 C86.26972929 124.41958226 86.63430617 125.7099497 87 127 C87.64647869 129.43732892 88.29231078 131.87482943 88.9375 134.3125 C89.2778125 135.5603125 89.618125 136.808125 89.96875 138.09375 C91.05718778 142.14470264 92.0009302 146.22423877 92.9375 150.3125 C94.31530056 156.29345358 95.84083374 162.21591758 97.5 168.125 C97.70971436 168.87233398 97.91942871 169.61966797 98.13549805 170.38964844 C98.95318572 173.29543353 99.77371796 176.20040829 100.59570312 179.10498047 C102.63805689 186.36225957 104.60874768 193.43578857 105 201 C104 202 104 202 100.85717773 202.11352539 C99.46597303 202.11336633 98.07476239 202.10767506 96.68359375 202.09765625 C96.31806648 202.09694878 96.31806648 202.09694878 94.46827698 202.09336853 C92.12464368 202.08775408 89.78110461 202.07519922 87.4375 202.0625 C85.85221492 202.05748686 84.26692834 202.05292363 82.68164062 202.04882812 C78.7877239 202.03777997 74.89387795 202.02050572 71 202 C67.43918239 191.13287547 64.73111447 180.11191707 62.0625 169 C61.61961908 167.1686248 61.17642099 165.33732627 60.73291016 163.50610352 C59.482837 158.33878272 58.23996407 153.16975487 57 148 C56.8367926 147.31991882 56.67358521 146.63983765 56.50543213 145.93914795 C54.99156165 139.62886831 53.49186131 133.31554622 52 127 C45.4 126.67 38.8 126.34 32 126 C32.00523682 128.26673584 32.01047363 130.53347168 32.01586914 132.86889648 C32.03240568 140.34077457 32.04347148 147.81265344 32.05181217 155.28454494 C32.05704078 159.81674094 32.06413801 164.34891827 32.07543945 168.88110352 C32.08626914 173.2512283 32.09227701 177.62133508 32.09487724 181.99147224 C32.09673135 183.66250963 32.10035168 185.33354597 32.10573006 187.00457573 C32.11294159 189.33697551 32.1139909 191.66929993 32.11352539 194.00170898 C32.11712067 194.6994191 32.12071594 195.39712921 32.12442017 196.11598206 C32.11405216 200.88594784 32.11405216 200.88594784 31 202 C28.79349344 202.10012401 26.58377614 202.1308118 24.375 202.1328125 C23.71290527 202.13376923 23.05081055 202.13472595 22.36865234 202.13571167 C20.96647039 202.13639326 19.5642853 202.13454042 18.16210938 202.13037109 C16.00904287 202.12502246 13.85618498 202.1303167 11.703125 202.13671875 C10.34374954 202.13605796 8.9843742 202.13477679 7.625 202.1328125 C6.37976563 202.13168457 5.13453125 202.13055664 3.8515625 202.12939453 C1 202 1 202 0 201 C-0.09778542 198.4075962 -0.12994761 195.84185304 -0.12025452 193.24900818 C-0.12110894 192.42735973 -0.12196337 191.60571128 -0.12284368 190.75916439 C-0.124501 187.9845222 -0.11897302 185.20993943 -0.11352539 182.43530273 C-0.11324355 180.45488486 -0.1134012 178.47446688 -0.1139679 176.49404907 C-0.11425598 171.09964316 -0.10835748 165.70525926 -0.10139394 160.31085849 C-0.09516222 154.68006421 -0.09455675 149.04926948 -0.09336853 143.41847229 C-0.09025467 132.74766975 -0.08204056 122.0768774 -0.07201904 111.40607935 C-0.06085958 99.26118582 -0.05534788 87.1162918 -0.05032361 74.97139442 C-0.03985799 49.98092395 -0.0222575 24.99046255 0 0 Z M32 33 C31.97687236 40.93613787 31.95908277 48.87226176 31.94818783 56.80842495 C31.94295992 60.49314498 31.93586395 64.17784203 31.92456055 67.86254883 C31.91372838 71.41570831 31.90772247 74.96884563 31.90512276 78.52202034 C31.9032691 79.88045666 31.89964962 81.23889171 31.89426994 82.59731865 C31.88705525 84.49382223 31.88659191 86.39034793 31.88647461 88.28686523 C31.884254 89.36830307 31.88203339 90.44974091 31.87974548 91.56394958 C32 94 32 94 33 95 C36.01246217 95.15540479 38.9861423 95.23187153 42 95.25 C42.82628906 95.270625 43.65257812 95.29125 44.50390625 95.3125 C50.74247289 95.35155206 57.76312747 94.88611431 62.62890625 90.54760742 C67.06612683 85.33687563 67.18339557 81.43760329 67.23828125 74.828125 C67.246353 73.91295105 67.25442474 72.9977771 67.26274109 72.05487061 C67.27658629 70.1147247 67.28730649 68.17455439 67.29516602 66.234375 C67.3123515 63.27556752 67.35623007 60.31788533 67.40039062 57.359375 C67.41052001 55.47396655 67.41903535 53.58854859 67.42578125 51.703125 C67.44328934 50.82166809 67.46079742 49.94021118 67.47883606 49.03204346 C67.45968035 43.57151124 66.88717277 40.16153828 63 36 C56.85473822 32.14810793 50.63820705 32.64872993 43.5625 32.8125 C43.00594727 32.81926758 43.00594727 32.81926758 40.18945312 32.85351562 C37.45912788 32.88867003 34.72982256 32.93787894 32 33 Z " fill="#464fa1" transform="translate(405,34)"/>
<path d="M0 0 C70.01609442 0 70.01609442 0 85 14.25 C95.90860809 26.00883784 99.48088507 39.14958823 99.38818359 54.92797852 C99.39344055 56.05322937 99.39869751 57.17848022 99.40411377 58.33782959 C99.41720389 62.01833412 99.40861515 65.69839814 99.3984375 69.37890625 C99.40046124 71.95857322 99.40337518 74.53823964 99.40713501 77.11790466 C99.41154338 82.50827043 99.40546563 87.89847375 99.39111328 93.28881836 C99.37478313 99.4930535 99.38008775 105.69699284 99.3965925 111.90122086 C99.41192074 117.90696085 99.41020488 123.91255782 99.4014473 129.91831779 C99.3994548 132.45748881 99.40187092 134.99666744 99.40888596 137.53582954 C99.41655527 141.09122484 99.40481944 144.64606199 99.38818359 148.20141602 C99.39425629 149.23705185 99.40032898 150.27268768 99.40658569 151.33970642 C99.26075705 168.27197429 92.86292733 179.11595291 81.17578125 190.828125 C76.10384378 195.50991343 70.00643229 199.22143866 62.9375 199.25 C61.968125 199.1675 60.99875 199.085 60 199 C60 199.66 60 200.32 60 201 C41.02369899 207.32543367 20.00277758 202 0 202 C0 135.34 0 68.68 0 0 Z M33 33 C33 78.21 33 123.42 33 170 C57.632 170 57.632 170 62.64453125 165.53515625 C66.23017044 161.01413292 67.11742784 157.97359289 67.14717102 152.31413269 C67.15432632 151.3763649 67.16148163 150.43859711 67.16885376 149.47241211 C67.17154266 148.45050781 67.17423157 147.42860352 67.17700195 146.37573242 C67.18357315 145.29399246 67.19014435 144.2122525 67.19691467 143.09773254 C67.21663008 139.51697724 67.22830544 135.93626381 67.23828125 132.35546875 C67.24235678 131.13222712 67.2464323 129.90898548 67.25063133 128.64867592 C67.27148297 122.17618606 67.28578955 115.70371735 67.29516602 109.23120117 C67.30323109 103.8739993 67.32437008 98.51702129 67.35668945 93.15991211 C67.39509564 86.69082609 67.41392767 80.2219673 67.41844749 73.75277138 C67.42331916 71.28842229 67.43494955 68.8240769 67.45348549 66.35979271 C67.47782177 62.91041033 67.47692165 59.46189304 67.4699707 56.01245117 C67.48278076 54.99661957 67.49559082 53.98078796 67.50878906 52.93417358 C67.46329194 46.73432437 66.64523882 43.06409483 63 38 C53.83626597 29.50678309 47.92533506 33 33 33 Z " fill="#464fa1" transform="translate(1272,34)"/>
<path d="M0 0 C0.68429077 -0.00095673 1.36858154 -0.00191345 2.0736084 -0.00289917 C3.52286877 -0.0035808 4.97213218 -0.00172773 6.42138672 0.00244141 C8.64687928 0.00778998 10.87217001 0.0024959 13.09765625 -0.00390625 C14.50260461 -0.00324547 15.90755285 -0.0019643 17.3125 0 C18.59962891 0.00112793 19.88675781 0.00225586 21.21289062 0.00341797 C24.15625 0.1328125 24.15625 0.1328125 25.15625 1.1328125 C25.28000169 3.15696241 25.33422311 5.18538987 25.36157227 7.21313477 C25.37154488 7.86377144 25.37154488 7.86377144 25.42201233 11.15638733 C25.43899799 12.5873299 25.45587675 14.01827375 25.47265625 15.44921875 C25.49321906 16.9051117 25.51421534 18.36099859 25.53562927 19.81687927 C25.59091961 23.65553897 25.64029802 27.49425315 25.68847656 31.33300781 C25.73864091 35.24744538 25.79435336 39.16180346 25.84960938 43.07617188 C25.95727603 50.76165151 26.05870193 58.44719707 26.15625 66.1328125 C26.49718185 65.47567764 26.83811371 64.81854279 27.18937683 64.14149475 C28.75359892 61.12867398 30.32014075 58.11706514 31.88671875 55.10546875 C32.42292847 54.07184204 32.95913818 53.03821533 33.51159668 51.9732666 C36.39264731 46.43887725 39.33132083 40.96358253 42.46875 35.5703125 C45.02301418 31.17803142 47.40008186 26.7482091 49.65625 22.1953125 C53.33878286 14.76448727 57.25353798 7.45039753 61.15625 0.1328125 C72.37625 0.1328125 83.59625 0.1328125 95.15625 0.1328125 C94.0314546 6.88158488 94.0314546 6.88158488 92.00390625 10.64453125 C91.78303345 11.05985107 91.78303345 11.05985107 90.6652832 13.16162109 C90.42660522 13.60030518 90.42660522 13.60030518 89.21875 15.8203125 C88.21350118 17.70180129 87.20829372 19.58331217 86.203125 21.46484375 C85.69330078 22.41182129 85.18347656 23.35879883 84.65820312 24.33447266 C82.39905171 28.54357434 80.18572338 32.77639653 77.96875 37.0078125 C75.34001922 42.00903841 72.6949592 47.00073276 70.02075195 51.9777832 C65.56229787 60.27977011 61.33497962 68.68707025 57.15625 77.1328125 C56.73085938 77.81988281 56.30546875 78.50695312 55.8671875 79.21484375 C54.14603549 83.85817141 56.72697307 88.90017504 58.59765625 93.17578125 C59.09467041 94.32175781 59.59168457 95.46773438 60.10375977 96.6484375 C60.36714142 97.24720703 60.63052307 97.84597656 60.90188599 98.46289062 C61.73246186 100.35149114 62.55468384 102.24353563 63.37475586 104.13671875 C64.468528 106.66051121 65.56490833 109.18313672 66.6640625 111.70458984 C71.89071156 123.71254241 76.83547643 135.80642032 81.59375 148.0078125 C86.80160112 161.35265064 92.05953386 174.71548858 98.3046875 187.6171875 C98.63887695 188.31030029 98.97306641 189.00341309 99.31738281 189.7175293 C100.21111362 191.55139791 101.12428309 193.37575845 102.0390625 195.19921875 C103.15625 198.1328125 103.15625 198.1328125 102.15625 202.1328125 C89.94625 202.1328125 77.73625 202.1328125 65.15625 202.1328125 C61.43727852 193.20728096 57.73937562 184.27568976 54.09375 175.3203125 C53.95543259 174.98078552 53.95543259 174.98078552 53.25546265 173.26257324 C48.34275322 161.18989035 43.59318608 149.0581652 38.93920898 136.88354492 C38.47071533 135.66127197 38.00222168 134.43899902 37.51953125 133.1796875 C37.11001221 132.10557617 36.70049316 131.03146484 36.27856445 129.92480469 C35.33757685 127.583901 34.29969518 125.37763449 33.15625 123.1328125 C26.90356298 132.71737546 25.13558586 140.04763033 25.2890625 151.5859375 C25.28219662 153.02229637 25.27211467 154.45864306 25.25900269 155.8949585 C25.23270848 159.62997526 25.24651448 163.36370301 25.27032471 167.09869385 C25.29217863 171.66762981 25.2678064 176.23651791 25.24827385 180.80543137 C25.23365136 184.35136253 25.22652088 187.89674998 25.24246216 191.44268799 C25.24511078 192.70200134 25.2477594 193.9613147 25.25048828 195.25878906 C25.25327286 195.81543243 25.25327286 195.81543243 25.2673645 198.63238525 C25.15625 201.1328125 25.15625 201.1328125 24.15625 202.1328125 C21.87677208 202.2330218 19.59417865 202.26362553 17.3125 202.265625 C16.97035461 202.26610336 16.97035461 202.26610336 15.2388916 202.26852417 C13.78963123 202.2692058 12.34036782 202.26735273 10.89111328 202.26318359 C8.66562072 202.25783502 6.44032999 202.2631291 4.21484375 202.26953125 C2.80989539 202.26887047 1.40494715 202.2675893 0 202.265625 C-1.28712891 202.26449707 -2.57425781 202.26336914 -3.90039062 202.26220703 C-6.84375 202.1328125 -6.84375 202.1328125 -7.84375 201.1328125 C-7.94374457 198.55531486 -7.97815801 196.00454757 -7.97073364 193.42651367 C-7.97229363 192.60965434 -7.97385362 191.79279501 -7.97546089 190.95118237 C-7.97947432 188.19269739 -7.97627993 185.43426671 -7.97314453 182.67578125 C-7.97449842 180.70683764 -7.97627828 178.73789429 -7.97845459 176.76895142 C-7.9830304 171.4054719 -7.98123876 166.04201152 -7.9780755 160.67853165 C-7.97555266 155.07890011 -7.97788923 149.47927027 -7.97946167 143.87963867 C-7.98128359 134.47411808 -7.97887648 125.06860534 -7.97412109 115.66308594 C-7.96867843 104.77210073 -7.97044107 93.88113425 -7.9759475 82.9901495 C-7.980478 73.65770526 -7.98112949 64.32526667 -7.97850883 54.99282169 C-7.97694571 49.41093196 -7.97675325 43.82905104 -7.98004532 38.24716187 C-7.98292312 33.00073745 -7.98095003 27.75433728 -7.97515106 22.5079155 C-7.97382297 20.57649145 -7.9742184 18.64506538 -7.97641373 16.71364212 C-7.97912332 14.08877048 -7.97574646 11.46397785 -7.97073364 8.83911133 C-7.97296436 8.06451663 -7.97519509 7.28992193 -7.97749341 6.49185467 C-7.95110109 -0.57295837 -6.86147338 0.00601281 0 0 Z " fill="#464fa1" transform="translate(542.84375,33.8671875)"/>
<path d="M0 0 C5.94482112 -0.02467203 11.8896126 -0.04284663 17.83447266 -0.05493164 C19.85791543 -0.05996831 21.88135456 -0.06679789 23.90478516 -0.07543945 C26.80892843 -0.08753412 29.71302369 -0.09323488 32.6171875 -0.09765625 C33.52556366 -0.10281754 34.43393982 -0.10797882 35.36984253 -0.11329651 C36.21056305 -0.11337204 37.05128357 -0.11344757 37.91748047 -0.11352539 C38.2883226 -0.1146357 38.2883226 -0.1146357 40.16500854 -0.12025452 C42 0 42 0 44 1 C44.5216217 2.69976807 44.5216217 2.69976807 44.91040039 4.95410156 C45.06173935 5.80609634 45.21307831 6.65809113 45.3690033 7.53590393 C45.52695877 8.47796188 45.68491425 9.42001984 45.84765625 10.390625 C46.02007339 11.37679306 46.19249054 12.36296112 46.37013245 13.37901306 C46.94280753 16.66792263 47.50267425 19.95888086 48.0625 23.25 C48.46137806 25.55651743 48.86096565 27.86291227 49.26123047 30.16918945 C50.52037814 37.4439414 51.76148786 44.72171079 53 52 C53.39596295 54.32275956 53.79195843 56.64551357 54.18798828 58.96826172 C55.71424113 67.9265059 57.23641904 76.88543256 58.75073242 85.84570312 C62.32312166 106.97857937 65.99158515 128.09450416 69.74609375 149.19580078 C71.50549474 159.09590282 73.2110848 169.00410364 74.84472656 178.92578125 C75.11913714 180.58414687 75.39657075 182.24201462 75.67675781 183.89941406 C76.08829044 186.33549803 76.49048595 188.77295961 76.890625 191.2109375 C77.0176178 191.95145355 77.1446106 192.6919696 77.27545166 193.45492554 C77.8076523 196.75681005 78.07468094 198.77595717 77 202 C72.31860746 202.02465288 67.63725241 202.04283739 62.95581055 202.05493164 C61.36205386 202.05997157 59.76830181 202.0668035 58.17456055 202.07543945 C55.88849747 202.08751999 53.60249533 202.09323155 51.31640625 202.09765625 C50.59973282 202.10281754 49.88305939 202.10797882 49.14466858 202.11329651 C47.42936328 202.11349263 45.71418734 202.06192007 44 202 C41.89333764 199.89333764 42.04484154 195.73768188 41.58984375 192.8359375 C41.45808243 192.01050446 41.32632111 191.18507141 41.19056702 190.33462524 C40.91199928 188.58132182 40.63556888 186.82767771 40.36108398 185.07373047 C39.94237548 182.40606255 39.51364517 179.7401417 39.08398438 177.07421875 C38.81448978 175.3698887 38.54559096 173.66546432 38.27734375 171.9609375 C38.14923813 171.16899994 38.02113251 170.37706238 37.8891449 169.56112671 C37.77224808 168.80409454 37.65535126 168.04706238 37.53491211 167.26708984 C37.43133896 166.61058441 37.32776581 165.95407898 37.22105408 165.27767944 C36.92223281 162.19870859 37 159.09343751 37 156 C26.77 156 16.54 156 6 156 C5.401875 160.269375 4.80375 164.53875 4.1875 168.9375 C2.99053781 177.37015256 1.77823073 185.79677691 0.3125 194.1875 C0.19350342 194.88029053 0.07450684 195.57308105 -0.0480957 196.28686523 C-0.87380426 200.87380426 -0.87380426 200.87380426 -2 202 C-4.36398468 202.1007812 -6.69811311 202.13973215 -9.0625 202.1328125 C-9.76898682 202.13376923 -10.47547363 202.13472595 -11.20336914 202.13571167 C-12.69970793 202.13639333 -14.19604967 202.13454005 -15.69238281 202.13037109 C-17.99030157 202.12502257 -20.28802486 202.13031651 -22.5859375 202.13671875 C-24.03645877 202.13605797 -25.48697991 202.1347768 -26.9375 202.1328125 C-27.2833313 202.13382462 -27.2833313 202.13382462 -29.03344727 202.13894653 C-33.88504776 202.11495224 -33.88504776 202.11495224 -35 201 C-35.078625 193.01170025 -33.33157669 185.14515233 -31.78759766 177.34985352 C-30.08317117 168.65638839 -28.62416085 159.92809446 -27.1875 151.1875 C-24.89542541 137.26879183 -22.50604359 123.36987364 -20.05508423 109.478302 C-17.92062562 97.37219207 -15.86873206 85.25502423 -13.875 73.125 C-12.01089215 61.78381429 -9.99823611 50.48925388 -7.76000977 39.21459961 C-6.04897209 30.51316869 -4.63603749 21.77615737 -3.34326172 13.00317383 C-3.19518066 12.02630615 -3.04709961 11.04943848 -2.89453125 10.04296875 C-2.76925049 9.18727295 -2.64396973 8.33157715 -2.51489258 7.44995117 C-1.95926511 4.80617609 -1.06988637 2.47592789 0 0 Z M21 54 C17.37836952 77.29721521 14.09442331 100.62722817 11 124 C17.93 124 24.86 124 32 124 C31.05898356 117.24530662 30.11730759 110.49071119 29.17407227 103.73632812 C28.85469536 101.44796779 28.53567327 99.15955789 28.21704102 96.87109375 C26.22527655 82.56802926 24.177746 68.27599837 22 54 C21.67 54 21.34 54 21 54 Z " fill="#464fa1" transform="translate(303,34)"/>
<path d="M0 0 C0.99904358 -0.00637985 1.99808716 -0.0127597 3.02740479 -0.01933289 C3.57315155 -0.0198893 3.57315155 -0.0198893 6.33496094 -0.02270508 C7.45690857 -0.02603348 8.5788562 -0.02936188 9.73480225 -0.03279114 C12.12235096 -0.03786993 14.50990682 -0.04019917 16.89746094 -0.04003906 C20.51216825 -0.04220212 24.12655866 -0.06028213 27.74121094 -0.0793457 C30.06412657 -0.0822843 32.38704364 -0.08426597 34.70996094 -0.08520508 C35.7771637 -0.09239059 36.84436646 -0.09957611 37.94390869 -0.10697937 C53.23893407 -0.06159552 67.77690418 2.35816487 79.31933594 13.14526367 C89.73104851 24.16830615 93.59299692 36.7135965 93.69042969 51.64916992 C93.69945816 52.5307225 93.70848663 53.41227509 93.7177887 54.32054138 C93.73220669 56.17687636 93.74115672 58.03326119 93.74487305 59.88964844 C93.75670508 62.67693698 93.80591928 65.46196041 93.85644531 68.2487793 C94.00815562 84.97514287 91.28545249 99.3651376 79.54980469 112.05932617 C67.92052604 123.17446829 54.86147396 126.50170444 39.31933594 126.27026367 C38.16304687 126.26124023 37.00675781 126.2522168 35.81542969 126.24291992 C32.98317947 126.2195129 30.15136974 126.18672363 27.31933594 126.14526367 C27.32155655 127.08264877 27.32377716 128.02003387 27.32606506 128.98582458 C27.34629737 137.80048152 27.3613085 146.61513377 27.37114811 155.42980862 C27.37637671 159.96200462 27.38347394 164.49418194 27.39477539 169.02636719 C27.40560508 173.39649198 27.41161294 177.76659875 27.41421318 182.13673592 C27.41606728 183.8077733 27.41968761 185.47880965 27.42506599 187.1498394 C27.43227752 189.48223919 27.43332683 191.8145636 27.43286133 194.14697266 C27.4364566 194.84468277 27.44005188 195.54239288 27.4437561 196.26124573 C27.4333881 201.03121151 27.4333881 201.03121151 26.31933594 202.14526367 C24.03985802 202.24547297 21.75726459 202.2760767 19.47558594 202.27807617 C19.13344055 202.27855453 19.13344055 202.27855453 17.40197754 202.28097534 C15.95271717 202.28165697 14.50345376 202.2798039 13.05419922 202.27563477 C10.82870666 202.27028619 8.60341593 202.27558027 6.37792969 202.28198242 C4.97298132 202.28132164 3.56803308 202.28004047 2.16308594 202.27807617 C0.87595703 202.27694824 -0.41117188 202.27582031 -1.73730469 202.2746582 C-4.68066406 202.14526367 -4.68066406 202.14526367 -5.68066406 201.14526367 C-5.78065863 198.56776603 -5.81507207 196.01699874 -5.80764771 193.43896484 C-5.8092077 192.62210551 -5.81076769 191.80524618 -5.81237495 190.96363354 C-5.81638838 188.20514857 -5.81319399 185.44671788 -5.81005859 182.68823242 C-5.81141248 180.71928881 -5.81319234 178.75034546 -5.81536865 176.78140259 C-5.81994446 171.41792307 -5.81815282 166.05446269 -5.81498957 160.69098282 C-5.81246672 155.09135128 -5.81480329 149.49172144 -5.81637573 143.89208984 C-5.81819765 134.48656926 -5.81579054 125.08105651 -5.81103516 115.67553711 C-5.8055925 104.78455191 -5.80735514 93.89358542 -5.81286156 83.00260067 C-5.81739206 73.67015643 -5.81804355 64.33771785 -5.81542289 55.00527287 C-5.81385977 49.42338313 -5.81366731 43.84150221 -5.81695938 38.25961304 C-5.81983718 33.01318862 -5.81786409 27.76678845 -5.81206512 22.52036667 C-5.81073703 20.58894262 -5.81113246 18.65751655 -5.81332779 16.72609329 C-5.81603739 14.10122165 -5.81266052 11.47642903 -5.80764771 8.8515625 C-5.80987843 8.0769678 -5.81210915 7.3023731 -5.81440747 6.50430584 C-5.79271911 0.69866998 -5.783329 0.02498448 0 0 Z M27.31933594 33.14526367 C27.31933594 53.60526367 27.31933594 74.06526367 27.31933594 95.14526367 C51.000187 95.14526367 51.000187 95.14526367 56.14746094 90.49291992 C60.88811657 85.25383087 61.49101799 80.96382323 61.55761719 74.00463867 C61.56568893 73.20423157 61.57376068 72.40382446 61.58207703 71.5791626 C61.59590195 69.8845841 61.60663122 68.18997794 61.61450195 66.49536133 C61.62601076 64.7690409 61.64644529 63.04275575 61.67602539 61.31665039 C61.71886616 58.81656823 61.73489427 56.31754313 61.74511719 53.81713867 C61.76262527 53.053349 61.78013336 52.28955933 61.798172 51.50262451 C61.77587032 45.93357699 60.47932233 42.74620964 57.31933594 38.14526367 C48.15560191 29.65204677 42.244671 33.14526367 27.31933594 33.14526367 Z " fill="#464fa1" transform="translate(171.6806640625,33.854736328125)"/>
<path d="M0 0 C9.9 0 19.8 0 30 0 C30 0.66 30 1.32 30 2 C31.258125 2.185625 32.51625 2.37125 33.8125 2.5625 C45.53747359 5.2356465 52.80861408 13.22110943 59.23828125 22.85546875 C61.81490994 27.36208187 63.01855452 32.32204304 64.3125 37.3125 C64.49651367 38.01906738 64.68052734 38.72563477 64.87011719 39.45361328 C65.68441266 42.81318676 66.11427146 44.65718562 65 48 C61.06789969 48.71541165 57.13519627 49.42739889 53.2019043 50.13623047 C51.86416924 50.37780425 50.52660214 50.62031006 49.18920898 50.86376953 C47.26590774 51.21372037 45.34194565 51.56003308 43.41796875 51.90625 C42.26063232 52.11572266 41.1032959 52.32519531 39.91088867 52.54101562 C37 53 37 53 34 53 C33.84144531 52.2265625 33.68289062 51.453125 33.51953125 50.65625 C31.75552633 42.78157608 30.00250867 35.84622839 23.1875 31 C17.98772639 29.36869848 13.95501273 29.39845762 8.75 31 C4.24478815 34.27651771 2.72084809 38.83745573 1 44 C-0.24052976 56.03923967 3.83006064 65.53640246 11 75 C11.43957031 75.59296875 11.87914062 76.1859375 12.33203125 76.796875 C16.77929681 82.38479368 22.4272854 86.59315596 28 91 C30.06884369 92.63826239 32.12961333 94.28535645 34.1875 95.9375 C35.10917969 96.66839844 36.03085938 97.39929688 36.98046875 98.15234375 C37.64691406 98.76207031 38.31335938 99.37179688 39 100 C39 100.66 39 101.32 39 102 C39.2990625 102.1340625 39.2990625 102.1340625 40.8125 102.8125 C42.99847854 103.99917406 44.41332594 105.09599113 46 107 C46 107.66 46 108.32 46 109 C46.66 109 47.32 109 48 109 C49.67213338 110.98393887 51.18911555 112.95169836 52.6875 115.0625 C53.13158203 115.68721191 53.57566406 116.31192383 54.03320312 116.95556641 C64.36201789 131.93085736 69.64311186 148.01186467 66.3125 166.20703125 C63.75417176 178.17039602 59.06412825 189.49535178 49 197 C39.14313299 202.88200007 31.0211585 205.22824872 19.56054688 205.29516602 C18.20106529 205.30660241 16.84162559 205.32691987 15.48242188 205.35668945 C4.42200208 205.59860235 -4.93721915 204.31144314 -14.1875 197.875 C-14.92355469 197.37742188 -15.65960938 196.87984375 -16.41796875 196.3671875 C-16.94003906 195.91601562 -17.46210937 195.46484375 -18 195 C-18 194.34 -18 193.68 -18 193 C-18.66 193 -19.32 193 -20 193 C-20 192.34 -20 191.68 -20 191 C-20.66 191 -21.32 191 -22 191 C-30.56336904 181.80049497 -35.65037787 168.55217611 -36.109375 156.01171875 C-36.07328125 155.34785156 -36.0371875 154.68398437 -36 154 C-36.66 154 -37.32 154 -38 154 C-38 151.69 -38 149.38 -38 147 C-13.95227766 144.33859199 -13.95227766 144.33859199 -6 145 C-4.12362697 146.87637303 -4.16534722 150.04512609 -3.6875 152.5625 C-1.84479204 161.33094125 0.92368287 167.44397362 7 174 C9.71655403 175.35827701 11.90789406 175.1323445 14.9375 175.125 C15.99839844 175.12757813 17.05929688 175.13015625 18.15234375 175.1328125 C21 175 21 175 24 174 C24.66 173.01 25.32 172.02 26 171 C26.66 171 27.32 171 28 171 C28.68774405 169.67741528 29.34711373 168.34013497 30 167 C30.53625 165.989375 31.0725 164.97875 31.625 163.9375 C34.33912727 157.42359455 33.7966844 150.41360159 31.4375 143.875 C27.81591538 135.85668458 22.30819006 129.8716592 15.50390625 124.41015625 C15.00761719 123.94480469 14.51132813 123.47945313 14 123 C14 122.34 14 121.68 14 121 C13.41009277 120.73155273 12.82018555 120.46310547 12.21240234 120.18652344 C9.98554984 118.9922503 8.43348664 117.74480965 6.6015625 116.015625 C5.96412109 115.4172583 5.32667969 114.8188916 4.66992188 114.20239258 C3.99509766 113.55810303 3.32027344 112.91381348 2.625 112.25 C1.92181641 111.58186279 1.21863281 110.91372559 0.49414062 110.2253418 C-0.9621341 108.83661441 -2.41556328 107.44489729 -3.86621094 106.05029297 C-5.23504494 104.73502203 -6.60776379 103.42377535 -7.98535156 102.11767578 C-22.25375982 88.57260165 -33.08512079 74.29759994 -34.16796875 53.82421875 C-34.24568383 41.34317733 -32.23725945 28.52520499 -25 18 C-24.34 18 -23.68 18 -23 18 C-22.7421875 17.41089844 -22.484375 16.82179688 -22.21875 16.21484375 C-18.35371225 9.19088092 -10.25640433 4.79687343 -3 2 C-2.01 2 -1.02 2 0 2 C0 1.34 0 0.68 0 0 Z " fill="#464fa1" transform="translate(75,32)"/>
<path d="M0 0 C0.68429077 -0.00095673 1.36858154 -0.00191345 2.0736084 -0.00289917 C3.52286877 -0.0035808 4.97213218 -0.00172773 6.42138672 0.00244141 C8.64687928 0.00778998 10.87217001 0.0024959 13.09765625 -0.00390625 C14.50260461 -0.00324547 15.90755285 -0.0019643 17.3125 0 C18.59962891 0.00112793 19.88675781 0.00225586 21.21289062 0.00341797 C24.15625 0.1328125 24.15625 0.1328125 25.15625 1.1328125 C25.25321917 3.30973861 25.27811746 5.48987643 25.27650452 7.66896057 C25.27735894 8.35993535 25.27821337 9.05091012 25.27909368 9.76282352 C25.28075047 12.0952447 25.2752239 14.42759513 25.26977539 16.76000977 C25.26949354 18.42516071 25.26965122 20.09031178 25.2702179 21.75546265 C25.27050594 26.29039356 25.26460816 30.82529826 25.25764394 35.36022305 C25.25141148 40.09414619 25.25080669 44.82806986 25.24961853 49.56199646 C25.24650489 58.5328335 25.23829108 67.50365842 25.22826904 76.47449011 C25.2171089 86.68471642 25.2115977 96.8949433 25.20657361 107.10517418 C25.19610849 128.11439373 25.17850843 149.12360235 25.15625 170.1328125 C25.81801743 170.13059189 26.47978485 170.12837128 27.16160583 170.12608337 C34.0228522 170.10403285 40.88408857 170.08890688 47.74536133 170.07788086 C50.30916757 170.0728388 52.87297091 170.06600536 55.43676758 170.05737305 C59.11280021 170.04530186 62.78879498 170.03958308 66.46484375 170.03515625 C67.61899277 170.02999496 68.77314178 170.02483368 69.96226501 170.01951599 C70.49277718 170.01947823 70.49277718 170.01947823 73.17749023 170.01928711 C74.11680893 170.0170665 75.05612762 170.01484589 76.02391052 170.01255798 C78.15625 170.1328125 78.15625 170.1328125 79.15625 171.1328125 C79.25637401 173.33931906 79.2870618 175.54903636 79.2890625 177.7578125 C79.29001923 178.41990723 79.29097595 179.08200195 79.29196167 179.76416016 C79.29264326 181.16634211 79.29079042 182.5685272 79.28662109 183.97070312 C79.28127246 186.12376963 79.2865667 188.27662752 79.29296875 190.4296875 C79.29230796 191.78906296 79.29102679 193.1484383 79.2890625 194.5078125 C79.28793457 195.75304687 79.28680664 196.99828125 79.28564453 198.28125 C79.15625 201.1328125 79.15625 201.1328125 78.15625 202.1328125 C75.51424939 202.23324521 72.8983641 202.268981 70.25585938 202.26220703 C69.84206276 202.26308319 69.84206276 202.26308319 67.7480011 202.26751709 C64.99864638 202.27193643 62.24935543 202.26899733 59.5 202.265625 C57.59810371 202.26629802 55.69620751 202.26726802 53.79431152 202.26852417 C49.80280745 202.27000125 45.81132571 202.26784625 41.81982422 202.26318359 C36.69134493 202.2574863 31.56291798 202.26076525 26.43444061 202.26675606 C22.50550946 202.27036139 18.57659082 202.26922322 14.6476593 202.26662827 C12.75612888 202.26595892 10.86459735 202.26678769 8.97306824 202.26910782 C6.33422823 202.27163388 3.69547419 202.26779441 1.05664062 202.26220703 C0.6618174 202.26321915 0.6618174 202.26321915 -1.33622742 202.26834106 C-6.72948749 202.24707501 -6.72948749 202.24707501 -7.84375 201.1328125 C-7.94374457 198.55531486 -7.97815801 196.00454757 -7.97073364 193.42651367 C-7.97229363 192.60965434 -7.97385362 191.79279501 -7.97546089 190.95118237 C-7.97947432 188.19269739 -7.97627993 185.43426671 -7.97314453 182.67578125 C-7.97449842 180.70683764 -7.97627828 178.73789429 -7.97845459 176.76895142 C-7.9830304 171.4054719 -7.98123876 166.04201152 -7.9780755 160.67853165 C-7.97555266 155.07890011 -7.97788923 149.47927027 -7.97946167 143.87963867 C-7.98128359 134.47411808 -7.97887648 125.06860534 -7.97412109 115.66308594 C-7.96867843 104.77210073 -7.97044107 93.88113425 -7.9759475 82.9901495 C-7.980478 73.65770526 -7.98112949 64.32526667 -7.97850883 54.99282169 C-7.97694571 49.41093196 -7.97675325 43.82905104 -7.98004532 38.24716187 C-7.98292312 33.00073745 -7.98095003 27.75433728 -7.97515106 22.5079155 C-7.97382297 20.57649145 -7.9742184 18.64506538 -7.97641373 16.71364212 C-7.97912332 14.08877048 -7.97574646 11.46397785 -7.97073364 8.83911133 C-7.97296436 8.06451663 -7.97519509 7.28992193 -7.97749341 6.49185467 C-7.95110109 -0.57295837 -6.86147338 0.00601281 0 0 Z " fill="#464fa1" transform="translate(1173.84375,33.8671875)"/>
<path d="M0 0 C9.36556696 7.14940363 16.20806856 16.50865057 18.33984375 28.28515625 C19.87525607 41.55700797 17.89335425 53.64298637 9.67578125 64.46484375 C0.64755884 74.524863 -9.69813322 79.86799796 -23.0703125 80.97265625 C-34.32303266 81.34133512 -43.15224174 78.01609987 -52.375 71.75 C-52.8184375 71.46125 -52.8184375 71.46125 -55.0625 70 C-62.89482904 62.37935553 -68.85523372 51.68643121 -69.578125 40.6484375 C-69.75691591 27.2093208 -66.49783233 15.64136556 -57.2890625 5.51171875 C-41.22765545 -9.27133141 -18.61512085 -12.28822933 0 0 Z M-51.375 11.75 C-55.83223609 17.28087689 -59.21469843 22.53642916 -59.375 29.75 C-37.1362465 35.21214998 -14.77285514 35.18731092 7.625 30.75 C9.1561244 25.44777291 7.60426917 22.85161622 5.07421875 18.1796875 C0.56109333 10.61320769 -5.87130414 5.3665218 -14.375 2.75 C-27.8299835 0.21132387 -41.14983963 2.01846806 -51.375 11.75 Z " fill="#ffffff" transform="translate(951.375,95.25)"/>
<path d="M0 0 C0.51667236 -0.00112793 0.51667236 -0.00112793 3.13134766 -0.00683594 C4.24429199 -0.00200195 5.35723633 0.00283203 6.50390625 0.0078125 C7.06811279 0.01022949 7.06811279 0.01022949 9.92333984 0.02246094 C13.30465195 0.04643167 16.6853492 0.08519911 20.06640625 0.1328125 C21.00145996 0.14538086 21.93651367 0.15794922 22.89990234 0.17089844 C25.33205361 0.21592977 27.76060512 0.29143881 30.19140625 0.3828125 C30.54231323 0.38982178 30.54231323 0.38982178 32.31811523 0.42529297 C37.28609796 0.66834141 41.28613512 1.90039058 45.06640625 5.1328125 C50.30226051 11.40153381 53.87653757 19.08265061 57.69140625 26.2578125 C58.8078824 28.34413083 59.92505232 30.43007807 61.04296875 32.515625 C61.52846191 33.42715332 62.01395508 34.33868164 62.51416016 35.27783203 C64.06640625 38.1328125 64.06640625 38.1328125 66.23095703 41.32592773 C68.8564398 45.92582046 68.56966664 50.48703242 68.45703125 55.66015625 C68.45137146 56.64907364 68.44571167 57.63799103 68.43988037 58.65687561 C68.4176064 61.79519393 68.36742623 64.93234307 68.31640625 68.0703125 C68.29632967 70.20636364 68.27808093 72.3424328 68.26171875 74.47851562 C68.21777136 79.6970091 68.15094995 84.91482724 68.06640625 90.1328125 C65.5886553 91.37168798 63.82986918 91.30022919 61.06640625 91.3203125 C60.17953125 91.33449219 59.29265625 91.34867187 58.37890625 91.36328125 C56.06640625 91.1328125 56.06640625 91.1328125 54.06640625 89.1328125 C53.60199535 87.58383223 53.19215403 86.01815418 52.81640625 84.4453125 C50.99552447 78.22919885 48.46279015 74.05003423 42.734375 70.81640625 C36.59508163 68.10983605 31.32952002 66.85531376 24.74609375 68.828125 C17.83287123 71.54321899 14.60960194 74.99130698 11.31640625 81.6953125 C10.06640625 85.1328125 10.06640625 85.1328125 9.06640625 90.1328125 C4.11640625 90.1328125 -0.83359375 90.1328125 -5.93359375 90.1328125 C-5.95671603 78.54592848 -5.97450825 66.95904991 -5.98540592 55.37214756 C-5.990635 49.99247488 -5.9977331 44.61281792 -6.0090332 39.2331543 C-6.0198612 34.04606407 -6.0258704 28.85898901 -6.02847099 23.67188835 C-6.0303254 21.6882497 -6.03394631 19.70461192 -6.03932381 17.72097969 C-6.04653307 14.95272114 -6.04758474 12.18452612 -6.04711914 9.41625977 C-6.05071442 8.58763931 -6.05430969 7.75901886 -6.05801392 6.9052887 C-6.04537473 0.00735128 -6.04537473 0.00735128 0 0 Z M9.06640625 16.1328125 C9.06640625 23.7228125 9.06640625 31.3128125 9.06640625 39.1328125 C22.26640625 39.1328125 35.46640625 39.1328125 49.06640625 39.1328125 C47.70994165 35.74165099 46.44327536 32.84287412 44.68359375 29.70703125 C44.28253418 28.98862061 43.88147461 28.27020996 43.46826172 27.5300293 C42.96439941 26.63582275 42.46053711 25.74161621 41.94140625 24.8203125 C40.33265625 21.9534375 38.72390625 19.0865625 37.06640625 16.1328125 C27.82640625 16.1328125 18.58640625 16.1328125 9.06640625 16.1328125 Z " fill="#ffffff" transform="translate(761.93359375,345.8671875)"/>
<path d="M0 0 C4.05444174 3.34546832 6.9541417 6.20424872 7.70703125 11.58203125 C7.76123087 17.58734896 6.77256119 21.93571132 2.70703125 26.58203125 C0.45703125 27.45703125 0.45703125 27.45703125 -1.29296875 27.58203125 C-1.29296875 28.24203125 -1.29296875 28.90203125 -1.29296875 29.58203125 C-6.24296875 29.58203125 -11.19296875 29.58203125 -16.29296875 29.58203125 C-16.29296875 28.92203125 -16.29296875 28.26203125 -16.29296875 27.58203125 C-17.03546875 27.41703125 -17.77796875 27.25203125 -18.54296875 27.08203125 C-21.98637202 25.20381129 -23.0518025 23.45963871 -24.62890625 19.93359375 C-26.22197591 14.29225296 -25.15357167 9.27250127 -22.54296875 4.14453125 C-16.74249327 -2.46156583 -7.7732869 -4.80699002 0 0 Z " fill="#ffffff" transform="translate(802.29296875,421.41796875)"/>
<path d="M0 0 C3.8196818 3.37553276 6.20066715 6.56825957 7.0703125 11.58203125 C7.36308558 17.31062447 5.92988974 20.70214419 2.6875 25.375 C2.0275 26.035 1.3675 26.695 0.6875 27.375 C-0.3025 27.375 -1.2925 27.375 -2.3125 27.375 C-2.3125 28.035 -2.3125 28.695 -2.3125 29.375 C-6.9325 29.375 -11.5525 29.375 -16.3125 29.375 C-16.3125 28.715 -16.3125 28.055 -16.3125 27.375 C-16.60125 27.3440625 -16.60125 27.3440625 -18.0625 27.1875 C-21.75161231 25.85532055 -23.60159007 22.79681986 -25.3125 19.375 C-25.8363576 14.11924835 -25.97755372 9.72973905 -23.625 4.9375 C-16.66100133 -2.77936339 -9.53208658 -4.67611794 0 0 Z " fill="#ffffff" transform="translate(674.3125,421.625)"/>
<path d="" fill="#ffffff" transform="translate(0,0)"/>
</svg>
